<?xml version="1.0" encoding="UTF-8"?>
<!DOCTYPE svg PUBLIC "-//W3C//DTD SVG 1.1//EN" "http://www.w3.org/Graphics/SVG/1.1/DTD/svg11.dtd">
<!-- Creator: CorelDRAW (Versão de avaliação) -->
<svg xmlns="http://www.w3.org/2000/svg" xml:space="preserve" width="118.718mm" height="114.118mm" version="1.1" style="shape-rendering:geometricPrecision; text-rendering:geometricPrecision; image-rendering:optimizeQuality; fill-rule:evenodd; clip-rule:evenodd"
viewBox="0 0 3468064 3333672"
 xmlns:xlink="http://www.w3.org/1999/xlink"
 xmlns:xodm="http://www.corel.com/coreldraw/odm/2003">
 <defs>
  <style type="text/css">
   <![CDATA[
    .fil0 {fill:#FEFEFE}
   ]]>
  </style>
 </defs>
 <g id="Camada_x0020_1">
  <metadata id="CorelCorpID_0Corel-Layer"/>
  <path class="fil0" d="M2729746 3102948c-145256,0 -142297,-203208 -6774,-203208 140559,0 123248,203208 6774,203208zm738317 -1502815l0 110631c-3926,121822 -20940,255440 -56856,400577 -52463,211984 -161130,405876 -289525,577491 -40567,54218 -157955,190241 -209051,224457 6155,26417 18524,58910 18527,88058 18,131418 -143016,251473 -284918,191882 -84150,-35338 -37398,-64183 -133250,-15775 -422953,213617 -957470,200640 -1388693,6891 -20481,-9202 -61615,-29426 -81167,-33983 -29078,19470 -66809,47415 -115150,47415 -86022,0 -144246,-24588 -189914,-87804 -17034,-23580 -28202,-52299 -34141,-88327 -23379,-141818 85233,-28731 -106173,-218416 -37041,-36706 -73446,-82464 -105238,-125062 -216964,-290726 -343495,-654331 -343495,-1024764 -90302,-21036 -141941,-98093 -149019,-179832l0 -38847c5793,-66499 41529,-130755 110458,-165334 76581,-38414 83250,348 100199,-42043 4122,-10315 10911,-37503 15293,-52442 6284,-21398 8077,-32183 15836,-51899 40734,-103509 56798,-156614 110131,-248867 8834,-15281 13479,-27358 23461,-44274 13309,-22561 35736,-70572 64904,-70572 30203,0 60961,27431 60961,54189l-110654 221253c-39925,85429 -76268,219529 -85777,239350 39083,20682 57531,45817 81281,81284l148993 -27121c141281,-23744 338889,-40617 487723,-40617 20516,-38777 34088,-58559 71521,-84266 82952,-56970 139417,-30881 179099,-30881 20478,-38707 130139,-167697 164262,-201514 48981,-48531 130641,-147476 187962,-177808 -13265,-56953 -32306,-75266 -13546,-155793 -147742,-78176 -353813,-184445 -521563,-223525 -18161,68007 -159979,171492 -304812,74509 -9830,14682 -149174,162565 -169336,162565 -51522,0 -73651,-29490 -63721,-63076 12027,-40681 129394,-127118 165322,-180773 -10519,-45160 -28666,-91663 -6234,-155247 30489,-86419 129654,-153816 229809,-136531 58609,10116 81871,34690 121878,61475 84071,-44482 234641,-99542 325118,-121936 291103,-72047 550031,-73694 841306,-1358 77022,19128 170931,50663 242400,82730 25114,11267 45408,26995 74585,33793 62819,-42063 117189,-85759 227644,-37982 60634,26224 124583,103643 124583,187001 0,29569 -11191,52933 -13549,81284 44000,29461 71921,70414 108378,94830 28024,-6529 60628,-20323 94830,-20323 50336,0 119628,38005 143469,66511 126099,150778 12325,258376 12325,278942 0,39706 208201,308204 223525,779875zm-2662009 1394436c0,-58127 42165,-100766 96501,-105136 136203,-10955 142306,205335 5101,205335 -51619,0 -101601,-46711 -101601,-100199zm1916917 -1049901c24778,-6614 14194,-7148 33869,-20320 118261,79189 144850,106366 243857,182873 40360,31187 75278,68004 116149,100608 23095,18424 92373,86995 107368,109386 -69684,131690 -72476,152022 -165422,281632 -41029,57213 -161677,198187 -213897,233157 -17075,-11434 -30574,-21591 -54189,-27095 15518,-32341 13549,-228582 13549,-284489 0,-38604 -21182,-47412 -54189,-47412 -69508,0 -42574,79081 -47771,141885 -4192,50698 -13189,130647 -13189,183244 -35791,798 -56941,12363 -79569,28806 -24866,18071 -40950,31307 -57423,57730 -52924,84895 -32350,120493 -32350,177633 -34269,7981 -184833,82680 -316889,116619 -112416,28891 -250839,47280 -388194,51373l-200655 -14121c-152767,-18962 -290448,-59123 -428843,-119815 -21766,-9547 -60371,-29227 -81091,-34056 6710,-28809 13546,-51879 13546,-88055 32832,-2734 125027,-44517 163613,-59915l256433 -122885 282508 -171320c103702,-78363 240361,-172678 338962,-263885 14092,-13035 23297,-23870 37039,-37474 17627,-17443 26905,-20995 44245,-37036 65240,-60341 124194,-130428 182867,-196451 31538,-35490 81982,-86910 103234,-127069 36770,19456 56316,20320 101601,20320 608,27305 9228,51408 15243,79587 26096,122231 21734,218448 86361,218448 80977,0 44298,-100555 35750,-150903 -7432,-43781 -28278,-151309 -42525,-181001zm-209980 -169339c0,-59249 44105,-103231 96124,-106737 54966,-3704 107084,46074 107084,99965 0,143696 -203208,130653 -203208,6771zm-67735 121924l-99600 117154c-14782,17577 -16809,23247 -34079,40433 -81158,80735 -84547,95791 -179549,179450 -13990,12322 -23747,23767 -37208,37301 -17121,17221 -22952,19342 -40404,34103 -16967,14349 -20598,19716 -39779,34731l-166406 131629c-97067,73303 -205384,137024 -310328,197693 -108013,62442 -229856,120040 -346647,168141 -35473,14612 -74831,25865 -107487,41534 -33854,-50555 -80422,-78850 -149019,-94830 -46077,-197780 15126,-615657 54172,-772204 45507,-182476 153342,-422901 155811,-433490 51972,0 109570,14294 175114,-28094 36559,-23642 87801,-78257 89051,-134474 100973,0 450673,85610 536023,114241 169731,56938 319343,112719 466466,190568 0,42653 -5828,49255 1671,92981 7362,42904 26315,61107 32198,83133zm318355 -270943l133215 -252878c59112,-118033 157476,-359913 185143,-478665 25289,-564 52734,-8477 74509,-13549 59684,112798 106994,211037 146092,348380 71711,251917 79312,467888 35911,727736l-66850 251502 -218311 -194877c-40386,-32934 -74991,-60689 -117469,-92510 -21939,-16435 -100754,-78734 -124822,-85157 40754,-84938 -16739,-164169 -47418,-209983zm-1937237 1178600c-23960,5583 -34851,16861 -54189,27095 -12074,-18030 -94947,-96790 -148131,-163453 -89852,-112626 -140065,-200719 -204196,-330917 -94263,-191368 -162465,-457415 -162465,-684230 39346,-3275 89536,-41239 109585,-66529 24752,-31231 45034,-77179 46208,-129902 38733,-865 102787,-14381 142616,-19952 46959,-6570 100725,-12944 143910,-18655 100196,-13242 192522,-22356 302773,-22356 15269,65530 22219,74179 54189,121924l-84205 200281c-76811,190355 -154715,514251 -152892,720898 646,73610 -8942,106152 -967,177127l7765 188669zm-724771 -1347936c0,-133630 203208,-138973 203208,0 0,139043 -203211,126774 -203208,0zm1110865 20317c-132905,0 -142887,-203205 6771,-203205 48440,0 93717,54049 92563,100742 -1309,52881 -41841,102463 -99334,102463zm149019 -243846c6056,-22684 54294,-75675 71556,-97783l260348 -267990c18141,4843 30761,15173 52156,22350 68375,22935 118685,9111 178144,-22350 144292,96620 366275,386821 454217,534724 20174,33925 122348,196010 101216,217143 -30729,14744 -85821,-27471 -115238,-40556 -40643,-18074 -83019,-37109 -122731,-53380 -217376,-89078 -450124,-155986 -685150,-195414 -43176,-7242 -113654,-21340 -153877,-22234 -2977,-35771 -24766,-50801 -40640,-74509zm1618879 -548658c0,-132692 203208,-136662 203208,0 0,140749 -203208,130057 -203208,0zm-1171825 -94830c126686,0 152670,203205 -13546,203205 -47383,0 -89849,-58621 -86487,-107152 3210,-46302 47278,-96054 100032,-96054zm1070224 81281c0,87065 38061,172693 101601,189659 -8419,101198 -268469,705295 -322337,705742 -4198,35 -16967,-724 -22488,-911 -18261,-619 -36536,-380 -54814,-380 -17095,-73382 -153938,-289949 -215729,-373573 -13064,-17679 -22973,-33927 -36930,-51125 -85882,-105808 -227560,-278982 -329868,-347489 2188,-26277 6923,-23510 13143,-47821 15383,-60108 3377,-72240 406,-107972 103646,-54844 129222,-73285 237150,-121845 60894,-27398 200938,-80194 264093,-94909 17630,66026 154797,165950 311584,60964 4160,5679 80644,76318 88055,81284 -16990,32110 -33866,59372 -33866,108376zm-291263 -352224c0,-120055 203205,-151371 203205,13546 0,115994 -203205,122900 -203205,-13546zm-1781450 0c3,-123405 203211,-150298 203211,13546 0,112170 -203208,127498 -203211,-13546zm1679846 0c-137261,31976 -283914,101315 -406413,162565 -43807,21904 -82558,41374 -121924,67735 -40716,-60803 -166716,-80299 -243665,-40456 -23055,11936 -34929,27439 -54370,40456 -4855,-4218 -1502,-2208 -11025,-9298 -8816,-6561 -8720,-6219 -16274,-10820 -10090,-6143 -18261,-10905 -29724,-17691 -103144,-61060 -369927,-172488 -484864,-199264l-7803 -40416c143875,-75809 406954,-162793 624196,-162793 266918,0 442418,14545 686112,119944 26069,11273 42376,26566 72526,29075 -6015,25830 -6771,26928 -6771,60964z"/>
 </g>
</svg>
