<?xml version="1.0" encoding="UTF-8"?>
<!DOCTYPE svg PUBLIC "-//W3C//DTD SVG 1.1//EN" "http://www.w3.org/Graphics/SVG/1.1/DTD/svg11.dtd">
<!-- Creator: CorelDRAW (Versão de avaliação) -->
<svg xmlns="http://www.w3.org/2000/svg" xml:space="preserve" width="171.042mm" height="79.2068mm" version="1.1" style="shape-rendering:geometricPrecision; text-rendering:geometricPrecision; image-rendering:optimizeQuality; fill-rule:evenodd; clip-rule:evenodd"
viewBox="0 0 5865230 2716098"
 xmlns:xlink="http://www.w3.org/1999/xlink"
 xmlns:xodm="http://www.corel.com/coreldraw/odm/2003">
 <defs>
  <style type="text/css">
   <![CDATA[
    .str0 {stroke:#00388C;stroke-width:1961;stroke-miterlimit:4}
    .fil2 {fill:none}
    .fil1 {fill:#00388C}
    .fil3 {fill:white}
    .fil0 {fill:#00388C;fill-rule:nonzero}
   ]]>
  </style>
 </defs>
 <g id="Camada_x0020_1">
  <metadata id="CorelCorpID_0Corel-Layer"/>
  <g id="logo_dcomp.eps">
   <path class="fil0" d="M67605 2432640l0 187731 39455 0c33310,0 57702,-7547 73171,-22639 15469,-15092 23201,-38914 23201,-71470 0,-32340 -7733,-56028 -23201,-71065 -15469,-15037 -39860,-22557 -73171,-22557l-39455 0zm-32662 -26843l67105 0c46784,0 81119,9728 103004,29185 21881,19460 32824,49887 32824,91280 0,41612 -10994,72173 -32985,91684 -21991,19512 -56272,29268 -102843,29268l-67105 0 0 -241417zm408614 143426l0 14553 -136798 0c1293,20482 7465,36088 18517,46811 11049,10726 26435,16089 46163,16089 11426,0 22502,-1403 33228,-4204 10726,-2802 21370,-7006 31935,-12612l0 28136c-10671,4530 -21614,7980 -32824,10349 -11210,2370 -22584,3556 -34120,3556 -28890,0 -51769,-8408 -68641,-25225 -16871,-16816 -25307,-39562 -25307,-68236 0,-29645 8004,-53172 24014,-70582 16007,-17410 37593,-26113 64759,-26113 24364,0 43632,7842 57808,23527 14176,15685 21264,37000 21264,63950zm-29751 -8731c-216,-16278 -4773,-29268 -13665,-38969 -8892,-9701 -20671,-14553 -35330,-14553 -16600,0 -29888,4688 -39860,14066 -9972,9379 -15712,22584 -17221,39617l106076 -161zm107366 79556l0 96050 -29912 0 0 -249986 29912 0 0 27488c6251,-10778 14149,-18781 23692,-24011 9540,-5229 20938,-7842 34199,-7842 21991,0 39857,8731 53604,26195 13744,17465 20616,40423 20616,68881 0,28458 -6872,51420 -20616,68884 -13747,17465 -31613,26195 -53604,26195 -13260,0 -24659,-2613 -34199,-7842 -9543,-5229 -17441,-13233 -23692,-24011zm101224 -63226c0,-21881 -4499,-39051 -13500,-51502 -9001,-12451 -21374,-18675 -37110,-18675 -15740,0 -28109,6224 -37110,18675 -9001,12451 -13504,29621 -13504,51502 0,21885 4502,39051 13504,51502 9001,12451 21370,18678 37110,18678 15736,0 28109,-6227 37110,-18678 9001,-12451 13500,-29617 13500,-51502zm162510 -645c-24042,0 -40697,2750 -49966,8247 -9269,5497 -13905,14876 -13905,28136 0,10565 3477,18946 10428,25142 6951,6200 16412,9300 28379,9300 16491,0 29724,-5850 39696,-17547 9972,-11697 14958,-27244 14958,-46650l0 -6628 -29590 0zm59341 -12290l0 103326 -29751 0 0 -27488c-6793,10994 -15253,19104 -25386,24333 -10133,5229 -22533,7842 -37192,7842 -18541,0 -33283,-5202 -44225,-15603 -10942,-10401 -16412,-24333 -16412,-41798 0,-20376 6817,-35738 20455,-46087 13638,-10346 33983,-15520 61042,-15520l41719 0 0 -2911c0,-13692 -4499,-24282 -13500,-31774 -9001,-7493 -21641,-11237 -37919,-11237 -10349,0 -20427,1238 -30238,3717 -9811,2479 -19241,6200 -28297,11158l0 -27488c10887,-4204 21449,-7359 31692,-9461 10243,-2102 20215,-3151 29916,-3151 26195,0 45758,6790 58696,20372 12935,13583 19402,34175 19402,61769zm166227 -49966c-3343,-1937 -6982,-3367 -10915,-4283 -3933,-916 -8274,-1375 -13017,-1375 -16816,0 -29724,5469 -38725,16412 -9001,10942 -13504,26655 -13504,47137l0 95402 -29912 0 0 -181102 29912 0 0 28136c6251,-10997 14392,-19162 24419,-24498 10023,-5336 22207,-8004 36544,-8004 2047,0 4314,134 6793,401 2479,271 5226,676 8244,1214l161 30560zm60637 -79233l0 51423 61285 0 0 23123 -61285 0 0 98313c0,14769 2023,24254 6066,28458 4043,4204 12259,6306 24655,6306l30564 0 0 24902 -30564 0c-22961,0 -38807,-4286 -47538,-12856 -8734,-8569 -13099,-24175 -13099,-46811l0 -98313 -21826 0 0 -23123 21826 0 0 -51423 29916 0zm182721 141489c-24042,0 -40697,2750 -49966,8247 -9269,5497 -13905,14876 -13905,28136 0,10565 3477,18946 10428,25142 6951,6200 16412,9300 28379,9300 16491,0 29724,-5850 39696,-17547 9972,-11697 14958,-27244 14958,-46650l0 -6628 -29590 0zm59341 -12290l0 103326 -29751 0 0 -27488c-6793,10994 -15253,19104 -25386,24333 -10133,5229 -22533,7842 -37192,7842 -18541,0 -33283,-5202 -44225,-15603 -10942,-10401 -16412,-24333 -16412,-41798 0,-20376 6817,-35738 20455,-46087 13638,-10346 33983,-15520 61042,-15520l41719 0 0 -2911c0,-13692 -4499,-24282 -13500,-31774 -9001,-7493 -21641,-11237 -37919,-11237 -10349,0 -20427,1238 -30238,3717 -9811,2479 -19241,6200 -28297,11158l0 -27488c10887,-4204 21449,-7359 31692,-9461 10243,-2102 20215,-3151 29916,-3151 26195,0 45758,6790 58696,20372 12935,13583 19402,34175 19402,61769zm202287 -43011c7438,-13367 16329,-23229 26679,-29590 10349,-6361 22529,-9540 36544,-9540 18864,0 33417,6601 43660,19807 10243,13206 15362,31987 15362,56351l0 109310 -29916 0 0 -108340c0,-17355 -3072,-30238 -9214,-38646 -6145,-8408 -15524,-12612 -28139,-12612 -15414,0 -27594,5120 -36541,15362 -8947,10243 -13422,24203 -13422,41880l0 102356 -29916 0 0 -108340c0,-17465 -3072,-30372 -9217,-38729 -6145,-8353 -15630,-12530 -28458,-12530 -15201,0 -27275,5147 -36222,15441 -8947,10298 -13422,24230 -13422,41801l0 102356 -29912 0 0 -181102 29912 0 0 28136c6793,-11103 14930,-19296 24419,-24580 9485,-5281 20750,-7921 33794,-7921 13151,0 24336,3340 33554,10023 9214,6683 16035,16388 20455,29106zm336496 48347l0 14553 -136798 0c1293,20482 7465,36088 18517,46811 11049,10726 26435,16089 46163,16089 11426,0 22502,-1403 33228,-4204 10726,-2802 21370,-7006 31935,-12612l0 28136c-10671,4530 -21614,7980 -32824,10349 -11210,2370 -22584,3556 -34120,3556 -28890,0 -51769,-8408 -68641,-25225 -16871,-16816 -25307,-39562 -25307,-68236 0,-29645 8004,-53172 24014,-70582 16007,-17410 37593,-26113 64759,-26113 24364,0 43632,7842 57808,23527 14176,15685 21264,37000 21264,63950zm-29751 -8731c-216,-16278 -4773,-29268 -13665,-38969 -8892,-9701 -20671,-14553 -35330,-14553 -16600,0 -29888,4688 -39860,14066 -9972,9379 -15712,22584 -17221,39617l106076 -161zm229127 -2589l0 109310 -29754 0 0 -108340c0,-17139 -3340,-29967 -10023,-38485 -6683,-8515 -16710,-12773 -30077,-12773 -16062,0 -28729,5120 -37998,15362 -9272,10243 -13909,24203 -13909,41880l0 102356 -29912 0 0 -181102 29912 0 0 28136c7115,-10887 15500,-19028 25146,-24419 9646,-5387 20777,-8082 33389,-8082 20804,0 36544,6440 47219,19320 10671,12883 16007,31829 16007,56838zm88773 -123215l0 51423 61285 0 0 23123 -61285 0 0 98313c0,14769 2023,24254 6066,28458 4043,4204 12259,6306 24655,6306l30564 0 0 24902 -30564 0c-22961,0 -38807,-4286 -47538,-12856 -8734,-8569 -13099,-24175 -13099,-46811l0 -98313 -21826 0 0 -23123 21826 0 0 -51423 29916 0zm170592 72282c-15956,0 -28568,6224 -37837,18675 -9269,12451 -13905,29508 -13905,51176 0,21669 4609,38729 13826,51180 9214,12451 21854,18675 37916,18675 15846,0 28407,-6251 37676,-18757 9269,-12506 13905,-29538 13905,-51097 0,-21449 -4636,-38454 -13905,-51015 -9269,-12557 -21830,-18836 -37676,-18836zm0 -25225c25873,0 46194,8408 60963,25225 14769,16816 22152,40100 22152,69851 0,29645 -7383,52905 -22152,69772 -14769,16871 -35090,25307 -60963,25307 -25979,0 -46327,-8436 -61042,-25307 -14714,-16868 -22073,-40128 -22073,-69772 0,-29751 7359,-53035 22073,-69851 14714,-16816 35063,-25225 61042,-25225zm356872 31853l0 -97991 29751 0 0 251605 -29751 0 0 -27166c-6251,10778 -14149,18781 -23688,24011 -9540,5229 -20993,7842 -34363,7842 -21881,0 -39696,-8731 -53439,-26195 -13747,-17465 -20619,-40426 -20619,-68884 0,-28458 6872,-51416 20619,-68881 13744,-17465 31558,-26195 53439,-26195 13370,0 24823,2613 34363,7842 9540,5229 17437,13233 23688,24011zm-101385 63223c0,21885 4502,39051 13504,51502 9001,12451 21370,18678 37107,18678 15740,0 28136,-6227 37192,-18678 9056,-12451 13583,-29617 13583,-51502 0,-21881 -4526,-39051 -13583,-51502 -9056,-12451 -21453,-18675 -37192,-18675 -15736,0 -28105,6224 -37107,18675 -9001,12451 -13504,29621 -13504,51502zm347329 -7599l0 14553 -136798 0c1293,20482 7465,36088 18517,46811 11049,10726 26435,16089 46163,16089 11426,0 22502,-1403 33228,-4204 10726,-2802 21370,-7006 31935,-12612l0 28136c-10671,4530 -21614,7980 -32824,10349 -11210,2370 -22584,3556 -34120,3556 -28890,0 -51769,-8408 -68641,-25225 -16871,-16816 -25307,-39562 -25307,-68236 0,-29645 8004,-53172 24014,-70582 16007,-17410 37593,-26113 64759,-26113 24364,0 43632,7842 57808,23527 14176,15685 21264,37000 21264,63950zm-29751 -8731c-216,-16278 -4773,-29268 -13665,-38969 -8892,-9701 -20671,-14553 -35330,-14553 -16600,0 -29888,4688 -39860,14066 -9972,9379 -15712,22584 -17221,39617l106076 -161zm365925 -116100l0 34442c-10997,-10243 -22718,-17897 -35169,-22965 -12451,-5065 -25684,-7599 -39699,-7599 -27594,0 -48724,8436 -63384,25307 -14660,16871 -21991,41263 -21991,73171 0,31798 7331,56135 21991,73006 14660,16871 35790,25307 63384,25307 14015,0 27248,-2534 39699,-7602 12451,-5065 24172,-12719 35169,-22958l0 34116c-11426,7760 -23527,13583 -36301,17461 -12773,3882 -26277,5823 -40505,5823 -36544,0 -65328,-11186 -86349,-33554 -21021,-22368 -31531,-52901 -31531,-91599 0,-38807 10510,-69399 31531,-91767 21021,-22368 49805,-33551 86349,-33551 14443,0 28054,1913 40827,5740 12773,3827 24769,9567 35978,17221zm119333 62578c-15956,0 -28568,6224 -37837,18675 -9269,12451 -13905,29508 -13905,51176 0,21669 4609,38729 13826,51180 9214,12451 21854,18675 37916,18675 15846,0 28407,-6251 37676,-18757 9269,-12506 13905,-29538 13905,-51097 0,-21449 -4636,-38454 -13905,-51015 -9269,-12557 -21830,-18836 -37676,-18836zm0 -25225c25873,0 46194,8408 60963,25225 14769,16816 22152,40100 22152,69851 0,29645 -7383,52905 -22152,69772 -14769,16871 -35090,25307 -60963,25307 -25979,0 -46327,-8436 -61042,-25307 -14714,-16868 -22073,-40128 -22073,-69772 0,-29751 7359,-53035 22073,-69851 14714,-16816 35063,-25225 61042,-25225zm273435 39130c7438,-13367 16329,-23229 26679,-29590 10349,-6361 22529,-9540 36544,-9540 18864,0 33417,6601 43660,19807 10243,13206 15362,31987 15362,56351l0 109310 -29916 0 0 -108340c0,-17355 -3072,-30238 -9214,-38646 -6145,-8408 -15524,-12612 -28139,-12612 -15414,0 -27594,5120 -36541,15362 -8947,10243 -13422,24203 -13422,41880l0 102356 -29916 0 0 -108340c0,-17465 -3072,-30372 -9217,-38729 -6145,-8353 -15630,-12530 -28458,-12530 -15201,0 -27275,5147 -36222,15441 -8947,10298 -13422,24230 -13422,41801l0 102356 -29912 0 0 -181102 29912 0 0 28136c6793,-11103 14930,-19296 24419,-24580 9485,-5281 20750,-7921 33794,-7921 13151,0 24336,3340 33554,10023 9214,6683 16035,16388 20455,29106zm210370 119172l0 96050 -29912 0 0 -249986 29912 0 0 27488c6251,-10778 14149,-18781 23692,-24011 9540,-5229 20938,-7842 34199,-7842 21991,0 39857,8731 53604,26195 13744,17465 20616,40423 20616,68881 0,28458 -6872,51420 -20616,68884 -13747,17465 -31613,26195 -53604,26195 -13260,0 -24659,-2613 -34199,-7842 -9543,-5229 -17441,-13233 -23692,-24011zm101224 -63226c0,-21881 -4499,-39051 -13500,-51502 -9001,-12451 -21374,-18675 -37110,-18675 -15740,0 -28109,6224 -37110,18675 -9001,12451 -13504,29621 -13504,51502 0,21885 4502,39051 13504,51502 9001,12451 21370,18678 37110,18678 15736,0 28109,-6227 37110,-18678 9001,-12451 13500,-29617 13500,-51502zm77131 18922l0 -109632 29751 0 0 108501c0,17139 3343,29995 10027,38564 6683,8569 16710,12856 30077,12856 16062,0 28757,-5120 38080,-15362 9324,-10243 13987,-24203 13987,-41880l0 -102678 29751 0 0 181102 -29751 0 0 -27814c-7225,10997 -15606,19162 -25146,24498 -9540,5336 -20616,8004 -33228,8004 -20804,0 -36599,-6467 -47377,-19405 -10781,-12935 -16172,-31853 -16172,-56752zm74868 -113998l0 0zm168511 -47058l0 51423 61285 0 0 23123 -61285 0 0 98313c0,14769 2023,24254 6066,28458 4043,4204 12259,6306 24655,6306l30564 0 0 24902 -30564 0c-22961,0 -38807,-4286 -47538,-12856 -8734,-8569 -13099,-24175 -13099,-46811l0 -98313 -21826 0 0 -23123 21826 0 0 -51423 29916 0zm182721 141489c-24042,0 -40697,2750 -49966,8247 -9269,5497 -13905,14876 -13905,28136 0,10565 3477,18946 10428,25142 6951,6200 16412,9300 28379,9300 16491,0 29724,-5850 39696,-17547 9972,-11697 14958,-27244 14958,-46650l0 -6628 -29590 0zm59341 -12290l0 103326 -29751 0 0 -27488c-6793,10994 -15253,19104 -25386,24333 -10133,5229 -22533,7842 -37192,7842 -18541,0 -33283,-5202 -44225,-15603 -10942,-10401 -16412,-24333 -16412,-41798 0,-20376 6817,-35738 20455,-46087 13638,-10346 33983,-15520 61042,-15520l41719 0 0 -2911c0,-13692 -4499,-24282 -13500,-31774 -9001,-7493 -21641,-11237 -37919,-11237 -10349,0 -20427,1238 -30238,3717 -9811,2479 -19241,6200 -28297,11158l0 -27488c10887,-4204 21449,-7359 31692,-9461 10243,-2102 20215,-3151 29916,-3151 26195,0 45758,6790 58696,20372 12935,13583 19402,34175 19402,61769zm191616 -70825l0 27814c-8408,-4636 -16844,-8113 -25307,-10431 -8463,-2315 -17005,-3474 -25629,-3474 -19296,0 -34281,6118 -44952,18353 -10671,12235 -16007,29401 -16007,51499 0,22101 5336,39267 16007,51502 10671,12235 25657,18353 44952,18353 8624,0 17166,-1159 25629,-3477 8463,-2315 16899,-5792 25307,-10428l0 27488c-8302,3882 -16899,6793 -25790,8734 -8895,1937 -18356,2908 -28379,2908 -27272,0 -48940,-8569 -65002,-25712 -16065,-17139 -24096,-40261 -24096,-69368 0,-29535 8113,-52767 24336,-69690 16223,-16923 38458,-25386 66703,-25386 9163,0 18109,943 26843,2829 8731,1886 17194,4715 25386,8487zm-42044 174151c5929,6683 10349,12856 13260,18517 2911,5658 4365,11073 4365,16247 0,9595 -3234,16844 -9701,21751 -6467,4904 -16062,7355 -28784,7355 -4959,0 -9783,-322 -14471,-970 -4688,-648 -9351,-1619 -13987,-2911l0 -21182c3666,1835 7493,3155 11481,3964 3988,806 8518,1210 13583,1210 6361,0 11158,-1293 14392,-3878 3234,-2589 4852,-6361 4852,-11320 0,-3234 -1159,-7198 -3477,-11885 -2318,-4691 -5902,-10325 -10754,-16899l19241 0zm176092 -91036c-24042,0 -40697,2750 -49966,8247 -9269,5497 -13905,14876 -13905,28136 0,10565 3477,18946 10428,25142 6951,6200 16412,9300 28379,9300 16491,0 29724,-5850 39696,-17547 9972,-11697 14958,-27244 14958,-46650l0 -6628 -29590 0zm59341 -12290l0 103326 -29751 0 0 -27488c-6793,10994 -15253,19104 -25386,24333 -10133,5229 -22533,7842 -37192,7842 -18541,0 -33283,-5202 -44225,-15603 -10942,-10401 -16412,-24333 -16412,-41798 0,-20376 6817,-35738 20455,-46087 13638,-10346 33983,-15520 61042,-15520l41719 0 0 -2911c0,-13692 -4499,-24282 -13500,-31774 -9001,-7493 -21641,-11237 -37919,-11237 -10349,0 -20427,1238 -30238,3717 -9811,2479 -19241,6200 -28297,11158l0 -27488c10887,-4204 21449,-7359 31692,-9461 10243,-2102 20215,-3151 29916,-3151 26195,0 45758,6790 58696,20372 12935,13583 19402,34175 19402,61769zm-77454 -118202l-9217 -8895c-2370,-2157 -4444,-3745 -6224,-4770 -1780,-1025 -3367,-1536 -4770,-1536 -4098,0 -7115,1968 -9053,5902 -1941,3937 -3021,10325 -3237,19162l-20211 0c216,-14550 3072,-25787 8569,-33712 5497,-7925 13151,-11885 22961,-11885 4098,0 7870,754 11320,2263 3450,1509 7170,4043 11158,7599l9214 8895c2373,2157 4448,3745 6227,4770 1780,1025 3367,1536 4770,1536 4098,0 7115,-1968 9056,-5905 1937,-3933 3018,-10322 3234,-19159l20211 0c-216,14553 -3072,25790 -8569,33712 -5497,7925 -13151,11885 -22961,11885 -4098,0 -7870,-754 -11320,-2263 -3450,-1509 -7170,-4043 -11158,-7599zm208916 61285c-15956,0 -28568,6224 -37837,18675 -9269,12451 -13905,29508 -13905,51176 0,21669 4609,38729 13826,51180 9214,12451 21854,18675 37916,18675 15846,0 28407,-6251 37676,-18757 9269,-12506 13905,-29538 13905,-51097 0,-21449 -4636,-38454 -13905,-51015 -9269,-12557 -21830,-18836 -37676,-18836zm0 -25225c25873,0 46194,8408 60963,25225 14769,16816 22152,40100 22152,69851 0,29645 -7383,52905 -22152,69772 -14769,16871 -35090,25307 -60963,25307 -25979,0 -46327,-8436 -61042,-25307 -14714,-16868 -22073,-40128 -22073,-69772 0,-29751 7359,-53035 22073,-69851 14714,-16816 35063,-25225 61042,-25225zm185306 -55950l27491 0 -84086 272139 -27488 0 84082 -272139zm56275 0l32824 0 0 146660c0,25873 4691,44493 14070,55867 9379,11374 24577,17060 45597,17060 20914,0 36061,-5685 45439,-17060 9379,-11374 14066,-29995 14066,-55867l0 -146660 32824 0 0 150703c0,31476 -7788,55247 -23363,71309 -15579,16062 -38567,24093 -68967,24093 -30509,0 -53549,-8031 -69124,-24093 -15579,-16062 -23366,-39833 -23366,-71309l0 -150703zm246105 0l138739 0 0 27488 -106076 0 0 71147 95727 0 0 27491 -95727 0 0 115291 -32662 0 0 -241417zm329902 7925l0 31853c-12396,-5929 -24093,-10349 -35090,-13260 -10997,-2911 -21614,-4365 -31853,-4365 -17787,0 -31507,3450 -41153,10349 -9650,6899 -14474,16710 -14474,29429 0,10675 3206,18733 9622,24175 6416,5442 18569,9835 36462,13178l19728 4043c24364,4636 42339,12801 53930,24498 11587,11697 17382,27354 17382,46972 0,23393 -7842,41125 -23527,53199 -15688,12074 -38677,18109 -68967,18109 -11426,0 -23579,-1293 -36462,-3878 -12883,-2589 -26223,-6416 -40021,-11481l0 -33633c13260,7438 26250,13041 38969,16813 12719,3775 25225,5661 37515,5661 18651,0 33043,-3666 43176,-10997 10133,-7328 15198,-17783 15198,-31366 0,-11858 -3638,-21130 -10915,-27814 -7277,-6683 -19217,-11697 -35817,-15037l-19889 -3882c-24364,-4852 -41986,-12451 -52874,-22800 -10887,-10349 -16333,-24741 -16333,-43173 0,-21346 7520,-38163 22557,-50453 15037,-12287 35762,-18432 62173,-18432 11320,0 22852,1025 34603,3072 11752,2047 23771,5120 36061,9217z"/>
   <path class="fil1" d="M5035866 1008978c25235,0 50274,-2555 75088,-7647 24858,-5154 47120,-14224 66823,-27217 19707,-13007 35677,-30715 47871,-53217 12228,-22440 18325,-51039 18325,-85721 0,-49657 -18143,-90436 -54389,-122385 -36242,-31901 -88272,-47871 -156077,-47871l-199798 0 0 344058 202157 0zm-266042 452895l0 -860789 263682 0c43382,0 81983,5905 115867,17722 33935,11806 62664,28211 86338,49091 23627,20894 41578,45693 53772,74470 12242,28781 18339,59735 18339,92809 0,42583 -7475,78825 -22454,108779 -14975,29964 -35104,54581 -60291,73915 -25235,19320 -54208,33314 -86908,41966 -32745,8686 -66436,13041 -101118,13041l-203344 0 0 388996 -63885 0z"/>
   <polygon class="fil1" points="4061618,974718 4486061,572681 4486061,1461873 4422224,1461873 4422224,718123 4061618,1074001 3706882,722856 3706882,1461873 3643032,1461873 3643032,572681 "/>
   <path class="fil1" d="M3382905 1030294c0,-52829 -10208,-102874 -30725,-150175 -20506,-47301 -48666,-88698 -84535,-124141 -35869,-35481 -78064,-63463 -126500,-83966 -48488,-20458 -101121,-30715 -157880,-30715 -49661,0 -98145,9265 -145398,27786 -47298,18521 -89507,44942 -126548,79199 -37052,34308 -66775,75461 -89263,123562 -22440,48063 -33691,101701 -33691,160809 0,49671 9872,97538 29576,143653 19707,46125 47253,87281 82745,123572 35495,36242 77642,65218 126500,86908 48910,21641 102877,32505 161995,32505 49657,0 98145,-9255 145443,-27776 47301,-18531 89267,-44942 125931,-79247 36633,-34260 66210,-75283 88650,-122958 22502,-47685 33701,-100706 33701,-159015zm-858378 3542c0,-67005 12797,-128482 38410,-184480 25609,-55950 59735,-104012 102256,-144222 42583,-40213 91441,-71545 146643,-93985 55185,-22498 112321,-33691 171429,-33691 67005,0 128870,12376 185618,37237 56797,24799 105850,57932 147247,99331 41348,41345 73479,89020 96355,143036 22862,54012 34260,110569 34260,169687 0,67770 -12811,129669 -38423,185618 -25609,55950 -59492,104050 -101687,144273 -42161,40162 -90632,71298 -145409,93365 -54763,22077 -111755,33136 -170873,33136 -67756,0 -130046,-12437 -186791,-37237 -56762,-24861 -105802,-57932 -147199,-99331 -41396,-41396 -73723,-89082 -96972,-143084 -23249,-53964 -34864,-110531 -34864,-169652z"/>
   <path class="fil1" d="M542285 6193c150693,0 290004,34212 417873,102586 127865,68432 238444,158642 331630,270674 93183,112043 166059,239439 218596,382196 52548,142761 78825,289487 78825,440183 0,150693 -26277,285975 -78825,405953 -52538,119985 -125413,221586 -218596,304849 -93186,83304 -203765,147250 -331630,191856 -127869,44613 -267180,66906 -417873,66906l-541304 0 0 -2165203 541304 0z"/>
   <path class="fil2 str0" d="M542285 6193c150693,0 290004,34212 417873,102586 127865,68421 238444,158628 331630,270674 93183,112043 166059,239439 218596,382196 52548,142761 78825,289487 78825,440183 0,150693 -26277,285975 -78825,405960 -52538,119978 -125413,221580 -218596,304832 -93186,83314 -203765,147250 -331630,191866 -127869,44603 -267180,66906 -417873,66906l-541304 0 0 -2165203 541304 0z"/>
   <polygon class="fil1" points="2546072,1601558 2490593,1646497 2544790,1719976 2605989,1668141 "/>
   <polygon class="fil1" points="2658493,1609119 2605893,1670223 2663547,1738644 2722655,1673247 "/>
   <polygon class="fil1" points="2446172,1309424 2402598,1362541 2467768,1424962 2515114,1352621 "/>
   <polygon class="fil1" points="2571211,424769 2510300,483465 2547718,526226 2615389,480163 "/>
   <path class="fil1" d="M2320810 730983l36520 53025 72828 -53590c-14035,-18521 -28259,-36342 -43008,-54197l-66340 54763z"/>
   <polygon class="fil1" points="2413002,118613 2365508,208206 2427411,242185 2480240,158449 "/>
   <polygon class="fil1" points="2610331,266333 2558122,332625 2609388,385937 2671530,329792 "/>
   <polygon class="fil1" points="2549796,533932 2475991,589507 2522771,654578 2596251,604764 "/>
   <polygon class="fil1" points="2122332,212739 2188164,217324 2247464,42339 2169352,18147 "/>
   <polygon class="fil1" points="2244913,171343 2210944,256738 2263008,278997 2306730,203388 "/>
   <polygon class="fil1" points="2404161,397127 2357525,467969 2411719,505676 2468615,448310 "/>
   <polygon class="fil1" points="2547441,1759720 2485586,1801812 2588785,1941792 2662361,1882297 "/>
   <polygon class="fil1" points="2473913,1808200 2422257,1836412 2503116,2001757 2576643,1951336 "/>
   <polygon class="fil1" points="2437667,1581947 2391834,1612374 2437619,1691147 2492156,1650320 "/>
   <polygon class="fil1" points="2356435,1986443 2294111,2010635 2315039,2103445 2396888,2067531 "/>
   <polygon class="fil1" points="2590154,1425726 2526317,1491027 2610430,1590259 2690572,1503451 "/>
   <polygon class="fil1" points="2150362,1895907 2090397,1911174 2104802,1991405 2169208,1977891 "/>
   <polygon class="fil1" points="2088219,1624420 2042187,1634731 2053486,1733116 2112182,1722709 "/>
   <polygon class="fil1" points="2216606,540876 2189155,596633 2221142,616255 2258341,565445 "/>
   <polygon class="fil1" points="1747707,1399583 1699268,1457384 1758619,1507658 1805917,1443434 "/>
   <polygon class="fil1" points="2195252,1610289 2150214,1627445 2178052,1736045 2233480,1707882 "/>
   <polygon class="fil1" points="2218118,2042344 2149515,2061105 2170247,2150468 2246765,2127692 "/>
   <polygon class="fil1" points="2093274,2041823 2022397,2048633 2016821,2170645 2109435,2167281 "/>
   <polygon class="fil1" points="2055423,1794121 1993243,1801682 1993716,1886168 2059960,1878847 "/>
   <polygon class="fil3" points="1350581,554438 1406095,509496 1351849,435972 1290698,487854 "/>
   <path class="fil3" d="M1137450 782629l40697 -75790 -143848 -100696c-21024,35577 -34500,71868 -52359,108875l155511 67612z"/>
   <polygon class="fil3" points="1181220,500292 1237869,436164 1177386,362067 1112785,438050 "/>
   <polygon class="fil3" points="1330630,795910 1374207,742803 1309037,680369 1261691,752771 "/>
   <path class="fil3" d="M1518330 825729l38701 -48111 -104715 -77676c-11769,18898 -21411,36328 -31051,56131l97065 69656z"/>
   <path class="fil3" d="M1073662 931206l29398 -79103 -143619 -57935c-7174,33317 -18329,66014 -24470,99513l138691 37525z"/>
   <path class="fil3" d="M1012887 1075514l8127 -80567 -84531 -17252c-2555,28451 -13610,56858 -14605,85395l91009 12424z"/>
   <polygon class="fil3" points="1225774,909986 1259935,842604 1183527,804839 1149415,877386 "/>
   <path class="fil3" d="M1072527 1389097l-13562 -60582 -91053 18240c4814,21837 9965,42343 16292,63559l88324 -21216z"/>
   <polygon class="fil3" points="1162119,1309812 1152007,1235801 1044411,1243928 1057926,1329420 "/>
   <path class="fil3" d="M1044123 1244316l-8312 -89181 -109248 -8261c2973,36146 6701,71072 11237,107119l106323 -9677z"/>
   <polygon class="fil3" points="1238716,1230887 1230829,1161050 1144312,1158824 1150166,1240482 "/>
   <path class="fil3" d="M1260552 1419763l-20650 -71024 -256303 60922c11107,30715 22814,61285 35577,91623l241376 -81521z"/>
   <path class="fil1" d="M1566104 744171l25331 -24148 -64176 -79573c-12002,11381 -23627,23201 -35022,35577l73867 68144z"/>
   <polygon class="fil3" points="1330825,1747622 1391734,1688888 1354353,1646161 1286682,1692241 "/>
   <polygon class="fil3" points="1604946,1418251 1572623,1370151 1497683,1412202 1533113,1461873 "/>
   <path class="fil3" d="M1159952 1592632l-26651 -58648 -81133 39884c10582,20695 21401,40779 32793,60956l74991 -42192z"/>
   <path class="fil2 str0" d="M1159952 1592622l-26651 -58638 -81133 39888c10582,20684 21401,40776 32793,60953l74991 -42202z"/>
   <polygon class="fil3" points="1460155,1433336 1438140,1386264 1362627,1411729 1389230,1472736 "/>
   <polygon class="fil1" points="1489079,2053791 1536573,1964133 1474612,1930212 1421783,2013900 "/>
   <polygon class="fil3" points="1239333,1709438 1190670,1643136 1118412,1696823 1174735,1768412 "/>
   <polygon class="fil3" points="1291740,1906068 1343914,1839762 1292683,1786412 1230503,1842608 "/>
   <polygon class="fil3" points="1173744,652257 1219965,580094 1157257,531332 1106554,596973 "/>
   <polygon class="fil1" points="1648945,2017398 1682914,1932054 1630836,1909795 1587128,1985400 "/>
   <polygon class="fil1" points="1497913,1768220 1544511,1704384 1490352,1666725 1445180,1724043 "/>
   <polygon class="fil3" points="1200961,809616 1238246,744219 1175774,705943 1136699,781974 "/>
   <polygon class="fil1" points="1361297,407239 1423113,365191 1319948,225215 1246325,284706 "/>
   <polygon class="fil1" points="1428123,364197 1479766,335937 1398969,170595 1325380,221065 "/>
   <polygon class="fil1" points="1464414,590450 1510203,560013 1464414,481236 1409928,522067 "/>
   <polygon class="fil1" points="1579615,543478 1637646,517009 1598705,423353 1535668,449678 "/>
   <polygon class="fil1" points="1486154,339096 1553207,312496 1523244,232254 1451133,264348 "/>
   <polygon class="fil2 str0" points="1486154,339096 1553207,312496 1523244,232254 1451133,264348 "/>
   <polygon class="fil1" points="1549699,202301 1612086,178157 1591096,74241 1509260,108923 "/>
   <polygon class="fil1" points="1632396,673425 1672376,650563 1635191,572873 1587128,602404 "/>
   <polygon class="fil3" points="1323590,649606 1368206,603965 1309462,534635 1253464,595265 "/>
   <polygon class="fil1" points="1805639,498732 1851658,488424 1840321,390039 1781676,400439 "/>
   <polygon class="fil1" points="1796096,730561 1849768,698986 1808989,579916 1734749,615346 "/>
   <polygon class="fil1" points="1652573,1634485 1726148,1533085 1685939,1505299 1600265,1592293 "/>
   <polygon class="fil1" points="1738065,1711702 1775867,1610779 1748177,1594844 1685092,1688696 "/>
   <polygon class="fil2 str0" points="1738065,1711702 1775867,1610769 1748177,1594847 1685092,1688696 "/>
   <polygon class="fil1" points="1795948,1579056 1828840,1497220 1805351,1485266 1752762,1549950 "/>
   <polygon class="fil1" points="1607683,360037 1676296,341321 1655550,251962 1579046,274738 "/>
   <polygon class="fil1" points="1706781,562047 1751857,544894 1723985,436346 1668604,464471 "/>
   <polygon class="fil1" points="1625826,1829519 1657497,1732074 1630181,1715587 1572153,1798887 "/>
   <polygon class="fil1" points="1842924,185378 1907282,183636 1904027,0 1821413,10682 "/>
   <polygon class="fil1" points="1949052,669217 1990822,661848 1988840,570030 1927980,579817 "/>
   <polygon class="fil1" points="2021406,243176 2092427,250593 2105989,160287 2026073,153769 "/>
   <path class="fil1" d="M1717123 238640l82323 -24906 -26504 -199277c-39984,10305 -95703,26466 -134497,39980l78678 184202z"/>
   <polygon class="fil1" points="1994138,117379 2074561,111330 2082122,2795 1989975,2599 "/>
   <polygon class="fil1" points="1895184,540029 1943342,533836 1942337,422458 1881429,436829 "/>
   <polygon class="fil1" points="1844388,343547 1912761,336736 1910728,246530 1826097,264252 "/>
   <path class="fil1" d="M1959360 446228l61573 3823 3024 -130324c-22258,1320 -42062,3498 -63802,7040l-796 119460z"/>
   <polygon class="fil1" points="1689580,391126 1761366,367599 1734001,286932 1658574,314104 "/>
   <path class="fil1" d="M2063080 659067l34874 3254 17907 -100600c-16491,-1608 -33026,-2651 -49853,-3121l-2928 100466z"/>
   <polygon class="fil3" points="1171951,1058032 1256537,1059544 1260323,1002892 1179893,987625 "/>
   <polygon class="fil3" points="1613210,1017009 1629759,950196 1558022,921563 1536525,1010065 "/>
   <polygon class="fil3" points="1485537,927043 1503259,878181 1431799,842834 1407521,904784 "/>
   <polygon class="fil3" points="1032313,1142481 1116149,1132454 1117561,1058505 1033874,1054342 "/>
   <polygon class="fil3" points="1264290,995889 1355769,1008797 1368628,929694 1281494,912963 "/>
   <polygon class="fil3" points="1343722,1515463 1308046,1466554 1150495,1520182 1193966,1605721 "/>
   <polygon class="fil3" points="1275627,1190677 1353687,1178435 1341977,1113508 1269482,1122160 "/>
   <polygon class="fil1" points="2076217,471789 2130085,482618 2153239,338492 2085812,328849 "/>
   <polygon class="fil1" points="2198932,381871 2258715,404167 2297365,310366 2234146,284429 "/>
   <polygon class="fil1" points="2268540,167231 2334794,195782 2383460,97624 2301332,63751 "/>
   <polygon class="fil1" points="2146720,527365 2188867,545837 2229139,469711 2176769,448684 "/>
   <polygon class="fil1" points="2475426,261745 2528676,293358 2575179,226398 2520028,184771 "/>
   <polygon class="fil1" points="2390226,567005 2430058,601605 2513749,530245 2476646,482049 "/>
   <polygon class="fil1" points="2255025,597772 2302145,628256 2351137,559218 2299302,526518 "/>
   <polygon class="fil1" points="2340225,345762 2401994,380965 2450468,303145 2380257,259519 "/>
   <polygon class="fil1" points="2275772,484926 2319771,504585 2376807,408134 2317737,372413 "/>
   <polygon class="fil1" points="2455393,400960 2494282,442964 2558822,377855 2493799,328088 "/>
   <polygon class="fil1" points="2345054,654760 2371136,675702 2404583,627262 2372744,609684 "/>
   <polygon class="fil1" points="2008170,1936021 2079194,1928655 2092753,2018958 2012851,2025480 "/>
   <path class="fil1" d="M1703904 1965179l82309 24906 -30571 172907c-40032,-10308 -75232,-26473 -114029,-40032l62290 -157781z"/>
   <polygon class="fil1" points="1884742,1938816 1965165,1944861 1972726,2034032 1884694,2029544 "/>
   <polygon class="fil1" points="1838243,1785280 1899525,1801486 1897543,1891696 1812861,1873975 "/>
   <path class="fil1" d="M1925521 1635150l51982 6718 -9787 128956c-21689,-5106 -40827,-1238 -61669,-8360l19474 -127313z"/>
   <path class="fil1" d="M1551308 1839584l40827 18699 -32275 75852c-15253,-9838 -29106,-20602 -43985,-30907l35433 -63645z"/>
   <path class="fil1" d="M1408742 1821437l62712 51221 -47637 71964c-21919,-18325 -43090,-37237 -64032,-56749l48958 -66436z"/>
   <path class="fil2 str0" d="M1408742 1821423l62712 51235 -47637 71964c-21919,-18336 -43090,-37233 -64032,-56742l48958 -66456z"/>
   <polygon class="fil1" points="1676392,1788072 1748177,1811654 1720765,1892313 1645351,1865097 "/>
   <polygon class="fil3" points="1644117,1256317 1666427,1301016 1572623,1370151 1537324,1315144 "/>
   <polygon class="fil3" points="1501081,1521368 1544837,1566924 1442858,1669606 1389278,1617106 "/>
   <polygon class="fil1" points="1695156,1344021 1721529,1373549 1652343,1459126 1604946,1418251 "/>
   <polygon class="fil3" points="1472349,1252203 1490074,1301064 1418577,1336411 1394336,1274413 "/>
   <polygon class="fil1" points="1829931,2056424 1913619,2074815 1899573,2170031 1817312,2159446 "/>
   <polygon class="fil1" points="1729742,1876622 1802374,1896572 1785219,1967775 1703804,1941597 "/>
   <polygon class="fil2 str0" points="1729742,1876625 1802374,1896562 1785219,1967775 1703804,1941597 "/>
   <polygon class="fil1" points="2185709,1797375 2245482,1775082 2284132,1868834 2220913,1894769 "/>
   <polygon class="fil1" points="2194395,1942262 2260649,1913711 2296182,1991645 2222473,2019904 "/>
   <polygon class="fil1" points="2241793,1581426 2288909,1550992 2337966,1620031 2286080,1652727 "/>
   <polygon class="fil1" points="2335219,1907292 2396988,1872085 2445458,1949919 2375247,1987907 "/>
   <polygon class="fil1" points="2262587,1694319 2306582,1674612 2375333,1771097 2311544,1806836 "/>
   <polygon class="fil1" points="2330452,1527036 2355204,1512860 2380353,1544714 2350533,1565545 "/>
   <polygon class="fil3" points="1393441,1115494 1478072,1116910 1481748,1060209 1401280,1045087 "/>
   <polygon class="fil1" points="1836306,1587283 1872743,1595036 1853739,1686237 1796699,1658595 "/>
   <polygon class="fil1" points="1657062,884460 1701301,816135 1602347,736840 1546445,817746 "/>
   <polygon class="fil3" points="1607645,1138647 1624314,1188174 1553485,1218042 1536611,1147491 "/>
   <polygon class="fil1" points="2067857,1504490 1989310,1503643 1971927,1596308 2075844,1596973 "/>
   <polygon class="fil1" points="2173189,690629 2206733,708920 2247560,641671 2199124,619135 "/>
   <polygon class="fil3" points="1538644,1103252 1609157,1092909 1608118,1048015 1539453,1044569 "/>
   <polygon class="fil1" points="1863475,1473775 1836535,1544196 1909034,1572400 1932842,1496277 "/>
   <polygon class="fil1" points="2186508,1473354 2219253,1536583 2289526,1500814 2250441,1440653 "/>
   <polygon class="fil1" points="2235418,716529 2282534,749359 2336258,677962 2279691,640581 "/>
   <path class="fil1" d="M2318680 1389518l-49475 36956 62942 78585c24436,-16731 37185,-29202 60061,-47819l-73527 -67722z"/>
   <polygon class="fil1" points="2151209,1486490 2106171,1498962 2119925,1609870 2189433,1588795 "/>
   <polygon class="fil1" points="2662690,462959 2711366,529203 2783611,475575 2727336,403937 "/>
   <polygon class="fil1" points="2720865,1672109 2664154,1736185 2724688,1810282 2784520,1734286 "/>
   <polygon class="fil1" points="2798600,1595934 2752379,1668045 2815090,1716808 2865838,1651171 "/>
   <polygon class="fil1" points="1613210,1017009 1629759,950196 1558022,921563 1574897,1013515 "/>
   <polygon class="fil1" points="1585386,1096596 1610573,1092909 1609531,1048015 1580232,1046551 "/>
   <polygon class="fil1" points="1609013,1138647 1625744,1189590 1589680,1203101 1588267,1141250 "/>
   <polygon class="fil1" points="1645485,1254901 1667840,1299600 1578250,1365614 1586655,1287310 "/>
   <polygon class="fil1" points="1604946,1418251 1576834,1376429 1564349,1442927 "/>
   <polygon class="fil1" points="1393476,519708 1406095,509496 1350433,435972 1341363,443677 "/>
   <polygon class="fil1" points="1527537,814297 1557031,777619 1499195,734724 "/>
   <polygon class="fil1" points="1532413,1553969 1544837,1566924 1514640,1597347 "/>
   <polygon class="fil3" points="1463797,1700413 1445180,1724043 1448204,1726594 "/>
  </g>
 </g>
</svg>
