<?xml version="1.0" encoding="UTF-8"?>
<!DOCTYPE svg PUBLIC "-//W3C//DTD SVG 1.1//EN" "http://www.w3.org/Graphics/SVG/1.1/DTD/svg11.dtd">
<!-- Creator: CorelDRAW (Versão de avaliação) -->
<svg xmlns="http://www.w3.org/2000/svg" xml:space="preserve" width="135.551mm" height="115.365mm" version="1.1" style="shape-rendering:geometricPrecision; text-rendering:geometricPrecision; image-rendering:optimizeQuality; fill-rule:evenodd; clip-rule:evenodd"
viewBox="0 0 46973673 39978209"
 xmlns:xlink="http://www.w3.org/1999/xlink"
 xmlns:xodm="http://www.corel.com/coreldraw/odm/2003">
 <defs>
  <style type="text/css">
   <![CDATA[
    .fil0 {fill:#FEFEFE}
   ]]>
  </style>
 </defs>
 <g id="Camada_x0020_1">
  <metadata id="CorelCorpID_0Corel-Layer"/>
  <g id="_2060505431792">
   <path class="fil0" d="M26611571 36000470l0 -15462293c825004,192190 2443788,1242270 2904683,1349662l0 12674982 -680428 405138c-573209,346365 -1230419,606303 -1834712,864613 -120907,51669 -284057,143328 -389544,167898zm20362101 -22152387l0 169457c-7624,143363 -30010,284889 -29421,447104 1386,373534 -23322,1095442 -66570,1429817 -243894,1885341 -442391,2891584 -1263305,4663400 -559382,1207374 -1521892,2530214 -2375554,3551185 -223725,267528 -487094,487406 -731923,735077 -396370,400910 -1881529,1424619 -2046759,1650111 429638,9564 1298721,473441 1666780,709814 161106,103442 321276,208131 471119,321033 314172,236616 570125,459579 847459,736914 825593,825489 1418208,1816865 1755389,2997729 121392,425064 287003,1238978 278547,1718518 -2599,148249 -32401,179680 -32436,351286 -139,873207 -229997,1819534 -605160,2563586 -465713,923628 -1023050,1687191 -1792885,2373406 -832212,741800 -1904574,1324954 -2996481,1551278 -951767,197284 -1861118,220918 -2817668,24154 -1650319,-339434 -3709865,-1661755 -4549874,-3225266 -93115,-173304 -181690,-325989 -274181,-518005 -87224,-181136 -139031,-354890 -206260,-556575 -96199,-288528 -348687,-894796 -370380,-1155324 -207161,109610 -406489,261255 -595041,402504 -1136264,851133 -2419807,1521026 -3718771,2090596 -441802,193715 -935861,399974 -1407500,528921 -247012,67540 -493817,159234 -739894,228369 -522510,146794 -1000283,257582 -1565764,370657 -1008877,201789 -3120334,452960 -4358862,314830 -95783,-10708 -192952,762 -289221,-4193 -129501,-6654 -122155,-26649 -263092,-30322 -1507511,-39159 -3397391,-492396 -4823951,-985381 -454450,-157051 -1286696,-593863 -1690448,-627442 -182730,272864 -412103,529961 -670413,737919 -92075,74159 -169007,131477 -261671,207750 -169215,139274 -354370,273453 -547288,391623l-593343 345533c-117130,59916 -206398,86808 -323528,145893 -321865,162353 -671695,295978 -1024471,383895l-766612 172264c-804939,134491 -1876955,121981 -2645889,-99422 -472540,-136051 -910910,-301176 -1352539,-495862 -715636,-315558 -1765300,-1148046 -2259429,-1789558 -438544,-569362 -844618,-1125937 -1119422,-1814578 -1035941,-2596160 -538105,-4915056 1102823,-7004196l522788 -562813c576328,-576744 1048763,-842989 1753068,-1180933 -100496,-189972 -262953,-317498 -393806,-486401l-522788 -592165c-49001,-55134 -43802,-61303 -89753,-115605l-204007 -236131c-569085,-612125 -974881,-1342836 -1406599,-2055526 -95471,-157571 -213225,-396856 -287349,-563540 -795790,-1789489 -1252251,-3722826 -1291340,-5669123l0 -548050c19614,-956515 141630,-1913168 375474,-2854505 319231,-1284860 823167,-2307806 1434564,-3406609 190457,-342310 417197,-659566 631046,-982644 61407,-92838 107808,-158021 170185,-240567 882494,-1167557 1802345,-2131141 3051373,-2963352 515718,-343627 1481867,-961540 2036882,-1190567 764637,-315558 804488,-382093 1751508,-683755 1774449,-565204 3936397,-653329 5826728,-376375 2166349,317360 3753044,1063976 5595934,2179206 109506,66258 302424,207784 427282,218180 64976,-278894 710369,-930386 946223,-1166274 521817,-521783 1076486,-1027382 1669309,-1470084l1228062 -855118c200958,-132932 436707,-258240 646779,-380152 698656,-405380 1454005,-696680 2217463,-951247 1409094,-469837 2790014,-722428 4470794,-722428 2776118,0 5819312,897084 8033415,2382346 153343,102853 287835,189522 440415,293137 800677,543649 1535060,1217527 2169572,1938050 347405,394534 459302,428876 870504,977896 115813,154591 196868,269745 304053,429465 502862,749250 988639,1540674 1356177,2370010 75684,170774 157259,320652 230136,503381 383860,962198 876984,2464511 969926,3489813 21243,234364 44045,447138 78352,684482 31882,220780 5683,498634 33510,700007 3708,26891 6307,53367 8005,79496zm-33301145 15580185l0 -8567361c0,-199156 29386,-258552 137680,-361127 276815,-262225 2254093,-725616 2720706,-829439 1324365,-294627 1725171,-179576 2703865,-318157 729082,-103234 965802,-79357 1655413,-46263 492985,23669 1527506,176111 2027006,232181 968817,108744 1088199,210522 1857514,401707 183977,45708 439099,124580 633922,128912l0 16401204 -2322118 494545c-3601953,533080 -6174757,204873 -9543559,-1098457 -136467,-52812 -284161,-74714 -398554,-129605 127561,-547426 516619,-970099 725720,-2090942 168175,-901554 187893,-1644809 37634,-2545289 -118343,-709260 -235230,-788167 -235230,-1671908zm24587095 6601553l674849 0c829890,0 1700221,-360989 2188112,-716537 287765,-209725 519703,-398935 746166,-691552 114635,-148110 201928,-263820 293518,-439965 526565,-1012897 266176,-1939089 46055,-3039556 -167170,-835920 -281181,-1628556 -281181,-2623502 209898,48897 213364,78387 344702,212774 306340,313513 428217,346850 825142,847286 1135433,1431549 1514892,3444971 909698,5244475 -92803,275914 -194235,547530 -318988,795964 -250131,498149 -760443,1297924 -1173725,1613551 -294280,224730 -502307,472886 -958698,743047 -125204,74125 -225735,134180 -352187,205289 -535055,300830 -1527471,606719 -2239295,606719 -1042976,0 -1860217,-93080 -2748533,-537550 -328761,-164502 -593239,-296013 -884192,-494822 -840459,-574248 -1496768,-1309429 -1951703,-2214587 -1107328,-2203221 -441316,-4898283 1220022,-6574766 263092,-265483 278374,-231037 520847,-359360 0,957139 -101778,1811251 -238834,2636497 -63624,382925 -169249,836509 -199675,1238008 -91971,1213438 386598,2195770 1390346,2860812 547565,362791 1292380,687774 2187557,687774zm-27080992 -7775174c407044,108709 949099,1134566 1134843,1505778 325850,651249 584991,1608492 537689,2484644 -7381,136536 -31223,180650 -30149,351286 4332,678695 -122259,1330637 -381088,1907450 -130957,291785 -923940,1670661 -1261295,1760726l-143987 -120075c-125793,-121739 -428876,-445752 -442841,-613407 137160,-36629 363484,-263889 616145,-322766 -38431,-165056 -160620,-378489 -251413,-511386 -112382,-164502 -274389,-292617 -364731,-427490 -228923,53332 -422673,205324 -674814,264062 -79080,-339365 -184982,-658180 -264062,-997580 101362,-2252 664106,-142739 733517,-176041 -7277,-326231 -130368,-623249 -166338,-919643 -22317,-183769 58080,-218492 -311191,-144888l-432029 125655 0 -792186c225423,5025 502619,88021 733517,88021 0,-405796 145234,-656621 176041,-1026897l-556021 -180408c35208,-72045 58634,-266315 80085,-354231 31154,-127699 65080,-219255 94501,-345568 270646,0 440485,126764 645497,264062 160239,-239319 493470,-752369 557441,-1026931l-440104 -176041c0,-359048 198358,-473891 410786,-616145zm-7745822 880207c0,294350 456322,822197 586793,909559 129501,-86704 101952,-102090 293414,-146690 39540,82407 65288,177774 107808,273592 75649,170531 68233,242889 68233,430574l-264062 0c-69585,298612 -149566,-51704 4054,465366 46090,155041 83966,353088 83966,561531 197943,104724 239700,88021 469455,88021l0 616145c-152442,-12683 -242126,-76446 -381435,-88021 -3257,146759 -86496,405935 -127734,547080 -41862,143224 -125031,431856 -136328,567838 148630,71318 350246,88021 528124,88021 -2842,128046 -218146,901866 -264062,997580 -118273,-62585 -358286,-234398 -469455,-264062 -30807,132343 -175071,336593 -252453,451678 -105625,157086 -176977,310498 -275671,457881 45327,67679 352083,354682 352083,381400 0,189245 -228958,402088 -422603,633645 -50906,60887 -146308,138095 -222859,158541 -195344,-130784 -508683,-544100 -651769,-756562l-275186 -428980c-371628,-616803 -614793,-1425658 -721389,-2153943l-50075 -674883c103511,-1252528 318469,-2191716 1029357,-3256246l308176 -395989c75719,-89823 64456,-104897 167586,-184497 83342,-64317 119452,-131234 222616,-158784l535263 520986c-55585,79080 -241849,310949 -241849,359222zm32802338 -1202938c0,-149289 774513,-367088 915069,-405242 1102026,-299374 2013387,-105521 3072824,114219 118447,24570 502134,102541 589184,144333 0,921099 -42590,1896742 95991,2691320 63728,365355 160967,783315 222824,1156155 165541,997926 492431,1905891 -624531,2712424 -1003332,724473 -2784608,716398 -3825955,36352 -1020416,-666324 -910702,-1467000 -738889,-2488734 153101,-910599 381504,-2189463 381504,-3109973 0,-322627 -88021,-540253 -88021,-850855zm-5603974 5868036l0 -11061258c283503,189834 945010,692210 1210423,960743 190908,193160 371593,334063 557927,527674l748176 865514c444505,541015 1271449,1848262 1327033,2516561 -154383,41203 -532075,400598 -695502,536753l-591471 670170c-268498,360920 -512981,750186 -728215,1149571 -160724,298265 -445059,1056976 -520154,1357598 -77105,308731 -185710,716364 -193853,1067788 -12649,544550 -27307,639987 -367885,893757 -237101,176700 -489416,379113 -746478,515129zm-20860874 -5691994c-99075,-8248 -481064,-281285 -586828,-352083 -168175,317845 -366083,577263 -557441,938876 67575,77763 117788,138581 210591,200160 295493,195967 296429,82234 41099,755696 -53402,140798 -212393,449945 -222374,569847l-674814 -88021c0,323736 -106179,558550 -149011,849019 -57872,392316 -89199,221507 374469,333855 95333,23079 155977,7797 155977,108085l0 1290994c-228022,0 -376029,45743 -557476,88021 0,267874 71629,964000 347266,1063457 118239,42694 246631,-24951 386252,-36560 163427,701497 360330,1007283 440104,1349662l-345048 359118c42936,207472 123783,325434 233186,486228 76065,111828 255295,323563 287904,445614 101466,-8456 387880,-205393 498772,-264062 78941,149150 195066,269260 297468,406697 105140,141145 222893,271790 318677,414841 -760028,508926 -1919510,909524 -2904683,909524 -1052090,0 -1728775,-56001 -2669973,-528090l-616110 -293414c29248,-351840 518490,-578442 616145,-997580 138581,73327 620373,340231 762835,352083 20342,-244621 400460,-718928 528124,-909559 -99942,-66917 -199190,-145130 -305855,-222270 -91036,-65842 -256958,-195759 -339642,-217834 26198,-112348 431094,-973738 440104,-1378980l761241 182452c3777,-410371 203453,-854217 265656,-1121328 -223552,-52085 -585684,-170809 -821504,-176041 0,-365910 9357,-464569 -29144,-821746 -15560,-144264 -55897,-247602 -58877,-381227l656066 -136120c95506,-14035 165437,4020 165437,-98590 0,-292062 -85699,-715809 -162977,-954297 -36040,-111239 -60540,-115363 -397895,-46713 -160967,32748 -332330,109679 -466025,120803l-440104 -1173621 733621 -351840c-114843,-239354 -75857,-260735 -284924,-536926 -127665,-168660 -246839,-320236 -360677,-490213 -165195,110615 -503555,440104 -733483,440104 -27377,0 -246908,-334375 -289048,-385801 -98902,-120734 -234468,-227780 -239077,-435737l686977 -310568c250097,-104239 474099,-188759 725062,-272483 897881,-299652 1681993,-361127 2603784,-205359 450015,76030 1121155,285270 1510560,484564l664383 333197c-84937,364524 -445995,506466 -498772,704166zm-1320311 -4342367l0 1701745c-521575,0 -909940,-88021 -1437683,-88021 81125,-303845 752300,-1001669 1019585,-1268954 100427,-100461 282567,-308592 418098,-344771zm1173586 176041c0,-882286 -50317,-1290196 745889,-1777395 702883,-430123 1461178,-771949 2188146,-1156606l0 6894932c-109090,-29109 -155145,-114947 -234745,-176007 -475554,-365009 -568531,-720696 -1659987,-1362069 -493956,-290260 -982540,-392143 -1010055,-721007l-29248 -1701849zm25878089 2992704c-51600,-97516 -76446,-175140 -127041,-283746 -513119,-1101160 -583536,-1342593 -1418935,-2336603 -490456,-583570 -562224,-494302 -168487,-1881425 124684,-439237 271582,-857613 419242,-1253152 144957,-388227 423643,-1131135 600481,-1482664l274320 -547219c57283,-106353 88575,-191601 150224,-289845 111100,-176942 218423,-342657 334825,-516065 108952,-162353 238799,-354682 287453,-563437 199606,105625 205913,54441 460792,272726 692002,592650 1348276,1101645 2058610,1667577l4170137 3282271c-37184,77521 -51530,139724 -97135,225562 -348063,655131 -1793959,1695785 -2355039,2104700 -147937,107808 -277577,184566 -422846,281320 -890326,592858 -984896,551827 -2049046,679596 -796449,95610 -1179131,282845 -1852975,552902 -79634,31916 -195863,54510 -264582,87501zm-33183773 -5486601l528921 204562c188378,82580 868945,364073 980565,486436 69030,75719 896390,2388965 925742,2741810 -534431,-357870 -1308598,-1406321 -1689963,-1977590 -209032,-313063 -509203,-819390 -649170,-1169948 -37114,-93011 -62689,-210522 -96095,-285270zm2669938 352083c0,-384311 588145,-1353786 821538,-1819118 91244,-181933 213675,-429188 264062,-645497l1324434 201269c1078080,179403 2221483,364108 3294192,578719 116957,23391 225908,47060 318677,62758 135739,22906 232007,57491 343939,66813 -82095,112036 -852138,586377 -1017575,684205 -531070,313998 -1412559,883984 -1909911,1317469 -393633,343038 -640680,553144 -1025684,940124 -86184,86635 -141734,109125 -221681,189106 -216829,216829 -588457,693770 -790662,911049l-206675 233463c-19614,21728 -226775,190839 -245765,194720 -113491,23183 -36698,-2772 -104932,-296914 -147071,-634061 -843959,-2202562 -843959,-2618166zm20244763 -2934035l-713592 -195967c-143328,-65218 -147556,-84659 -166616,-156115l464950 -180546c142185,-57283 309043,-133140 473926,-171536 0,230275 -58669,327132 -58669,704166zm-12821672 909524c20862,-250790 327409,-825489 445717,-1021283 224314,-371246 1793543,-3169716 1912510,-3251360 317256,-217799 2671706,-435009 3187874,-479644 455490,-39367 873761,-139759 1319479,-176873 37114,159234 148214,309632 224626,450222l796449 1257379c183769,275498 353122,545139 533981,815682l528124 850855c-351320,-29213 -458886,-117372 -1114952,-117372 -763458,0 -1544521,79842 -2209320,167239 -1436228,188759 -2542794,437782 -3875268,877851 -157848,52119 -288770,102471 -432618,154175l-1316603 473129zm20156708 3022056c-157640,-83412 -304122,-221126 -456911,-335276 -1596848,-1193096 -1315043,-1121155 -3386649,-2217325 163358,-308731 698378,-1004718 947990,-1311197l1010228 -1248958c427524,-479089 1072155,-1351049 1499540,-1874599 126937,-155457 408499,-479713 561842,-582427 207715,139100 366776,282255 561253,436292l1697933 1382791c-37807,162353 -956168,1584303 -1134635,1916772l-644249 1409544c-92283,261914 -187061,494857 -278651,748280 -155180,429292 -377692,1195245 -377692,1676101zm-30719193 -10591837c158299,36906 622972,296845 792186,381435l1564689 782518c683893,376722 581006,952218 681953,1665255 51600,364350 67956,702849 105452,1068169 97239,947262 229859,1344395 229859,2381445 0,112140 -224314,506327 -283988,625571 -55515,110996 -80709,192918 -136224,303879l-753409 1564481c-174967,-92595 -326474,-155388 -518490,-244379 -192398,-89130 -342137,-167967 -537377,-254810 -178502,-79357 -316667,-164398 -516134,-246701l-549228 -242958c-376826,-159408 -438579,-573659 -515476,-1039545 -258621,-1567496 -380880,-2541615 -174690,-4245163 52674,-435321 130541,-922208 229096,-1325925 95645,-391865 223933,-844306 381781,-1173274zm41545740 9946375c-333439,-27758 -1423025,-996956 -1737785,-1254919l-4159672 -3322123c-154591,-119486 -687948,-577991 -792117,-733552l364454 -457084c415846,-537654 1690102,-1500649 2336153,-1888807 353677,-212497 709537,-430262 1084283,-617496 846142,-422742 1431099,-710646 2386713,-987391 859345,-248814 1936698,-508961 2865178,-508961l46298 1156675c47545,314102 41723,1554189 41723,1924050 0,833736 -308731,2062561 -568496,2834995l-820221 2025793c-74402,147625 -127457,242889 -205047,381747 -75095,134353 -122501,234537 -197631,359845l-643833 1087229zm-15785024 -2464615c-314483,-73258 -937005,-413074 -1261642,-440104 0,-869222 264062,-1858519 264062,-3256766 0,-403613 -88021,-663759 -88021,-1085566 0,-107877 618571,-457812 887103,-726621l513708 -454520c74748,-75961 97551,-83169 174898,-147833l807919 -805805c73466,-74298 95506,-87328 173130,-149601 63209,-50699 113872,-100427 171883,-150883 698171,467549 1509590,1220785 2229835,1760414 86184,64595 269052,183908 322766,264062l-2095551 2598898c-93080,117754 -169596,201824 -264339,322454l-1311509 1622561c-89996,113006 -174101,216344 -260181,326578l-264062 322731zm-6220153 -8948761c124303,28971 269641,105452 398207,159269 149878,62758 258171,115640 410578,176215l2041457 863227c602595,246562 547738,332122 739478,991619 408118,1403930 429915,2173037 429915,3677706 0,308662 -287246,404999 -553006,503243 -550961,203730 -1811910,679873 -2293009,934440 -152338,-287904 -336107,-552555 -511179,-838449 -446029,-728250 -1100987,-1797355 -1583957,-2494348 -295666,-426693 -339573,-400113 -167898,-954713 202863,-655373 877608,-2171582 1018060,-2737479 27896,-112348 30080,-194651 71352,-280731zm-15491610 2816663l3919209 -1831489c190700,-78699 369895,-205081 569847,-251656 490490,328449 690096,663621 1020035,1033758 40094,44981 61407,59258 99179,106214 218284,271132 647680,671452 913024,935411 133902,133244 249438,303498 369236,452302 151818,188586 548709,535609 805944,839281 127769,150883 13896,303256 -116991,544966l-297780 523793c-491253,811662 -999347,1785296 -1496040,2611547 -102645,170774 -208963,352221 -299062,522510 -234329,0 -448906,-55169 -650348,-83135 -234502,-32540 -396578,-67332 -628031,-105486 -970931,-160101 -2912446,-561704 -3768118,-632917 0,-1717790 -440104,-2960927 -440104,-4665098zm29897655 2640621c-108952,-29075 -491183,-344251 -593343,-433554 -272275,-238037 -1494585,-1288949 -1783216,-1356212 54303,-233047 2154705,-2818569 2418282,-3156339l5197796 -6508958c67020,-93427 195482,-256196 217765,-339711 256196,135566 913198,716606 1097972,955856l330632 373499c418202,494822 812008,1081788 1147804,1639542 350905,582773 653814,1166690 936000,1821994 309563,718928 528124,1282919 712587,2074724 -611120,0 -1123789,73466 -1635903,183180 -235265,50421 -488931,108882 -730468,179091 -1524179,443118 -3106577,1084665 -4428793,1967367 -198705,132655 -344355,238280 -531590,377969l-1233607 1025580c-100219,92838 -135392,135115 -246077,223379 -221265,176527 -483594,482797 -678002,700978 -70347,78941 -172680,177462 -197839,271617zm-21212956 -1907104c-93115,-176007 -247879,-321102 -389197,-461693l-2698493 -2934798c-174239,-187893 -198428,-103026 -198428,-359083 0,-282948 355444,-1081061 490560,-1416544 233324,-579204 666497,-1876470 888455,-2338994 342588,0 685383,1490 1027902,1005l1441149 -84555c176249,-18644 324568,-25332 493436,-34654 471708,-26094 622521,-87189 1233156,-87189 283815,0 604813,350558 762835,557476 69862,91486 135531,143224 205393,234710l858202 902212c359014,359014 759577,720314 1082620,1117898 242196,298127 324152,447312 670448,679215 -70590,302978 -515753,1433490 -663517,1859732l-346573 915034c-75684,189245 -294280,759889 -422638,839004 -145061,89442 -3933902,569501 -4435308,611224zm9388864 -6014760c385801,258344 720384,539075 1081788,825315l1333340 1072570c94951,76828 168487,131788 261567,207854 184982,151125 347509,282498 530342,437920 193853,164814 966738,761864 1135329,801127 -67402,289186 -667398,867628 -905435,1060372l-791597 675403c-87258,70105 -205878,138927 -298127,200680l-429569 -1477535c-305266,-1028907 -916490,-2356287 -1552942,-3200177l-294592 -409574c-49382,-86392 -38431,-123125 -70105,-193957zm-18689708 4313015c-286171,0 -1128086,-490698 -1496352,-674814 -485257,-242611 -988985,-480579 -1467000,-733517 53644,-230344 99907,-367573 195101,-567734l274285 -488584c319023,-478847 739998,-1147735 1122541,-1576749 75857,-85075 109506,-138546 190631,-220121l1360613 -1338677c816687,-644804 1131517,-868009 2077843,-1413633 1312617,-756839 1118521,-530238 2573705,245973l1046441 537931c141665,68441 275186,96130 400979,156497l-1273771 3332623c-179957,432099 -335414,619298 -751087,803969l-3168364 1467381c-85526,42763 -162492,77521 -254394,127006 -223552,120387 -563229,342449 -831172,342449zm12733651 -6630905c21104,-79011 48758,-106664 95887,-168175 45535,-59431 70347,-98590 109714,-154348 252522,-358009 141110,-459475 1183463,107046 971520,528020 2534581,1939956 3267232,2806232 64907,76724 73605,99353 148318,174413 286206,287765 1148740,1485332 1180794,1870613 -126521,-29490 -329142,-128115 -459440,-186056 -166824,-74228 -306929,-127006 -469663,-205185 -404445,-194339 -1598408,-629799 -1807890,-832697 -126036,-122085 -194685,-237517 -307865,-366984 -202794,-232007 -388192,-485743 -631323,-688987 -76689,-64075 -100635,-72669 -175175,-147591l-498357 -499188c-420697,-420697 -1054308,-1242859 -1446866,-1545838 -57976,-44738 -155596,-117892 -188829,-163254zm-7804491 -1467000c265760,0 652254,-68822 882945,-114600 758641,-150640 1496768,-241364 2284900,-267874l1418034 109575c767825,101258 1374579,259176 2109586,443014 129883,32505 300379,90966 434212,93947 -110234,229686 -118863,610081 -598160,692834 -399420,68996 -841707,6099 -1278102,42208 -163601,13550 -426589,42867 -590051,55411l-1200963 90031c-605853,15490 -1293697,136744 -1795726,-170635 -339919,-208096 -1483773,-700770 -1666676,-973911zm18865749 6308139c-1216349,-814469 -3472348,-2756261 -4765802,-3772207 -543649,-427004 -1058501,-862014 -1630358,-1244973 134838,-578857 861251,-1041694 1136853,-1298340 1084041,-1009431 2665572,-1921693 4085651,-2486585 608694,-242126 1215864,-437297 1871653,-592927 597778,-141838 1020035,-199225 1678562,-199225 0,261186 88021,421287 88021,674849 0,1293697 36525,2396104 -188344,3655216 -123160,689646 -457638,1778157 -716953,2422441l-377103 855222c-152546,361162 -942237,1628245 -1182181,1986530zm3520828 -9682278c212220,0 403093,11401 607967,37530 567595,72357 1096586,103719 1727043,209413 1234612,206953 2768251,698656 3865842,1298028 246285,134491 1421292,929000 1632992,978312 -68580,129536 -148942,212948 -234745,322731l-1731062 2171166c-162942,208581 -327132,409366 -494926,620026 -168002,210869 -323528,408326 -495896,619021l-3456060 4348466c-166338,221126 -327583,404306 -490698,624219 -262433,353850 -553699,678349 -847043,1001392l-200784 209968 -945426 -726968c-111967,-97654 -212705,-167863 -322731,-264062 -348583,-304711 -920475,-760374 -1284444,-1004095l1359435 -2308118c268221,-536545 351182,-770008 556229,-1292206l185433 -548050c219809,-660675 390306,-1421916 506119,-2105150l150709 -1316325c51634,-1071531 75580,-1191676 29386,-2200448 -11228,-245072 -89719,-459579 -117338,-674849z"/>
   <path class="fil0" d="M19980666 26670275l0 997580 -880207 0 0 -997580 -1114917 0 0 997580 -909524 0 0 -997580 -1114952 0 0 997580c-950936,0 -821504,-129501 -821504,968228 0,318122 393321,234710 821504,234710l0 909559 1114952 0 0 -909559 909524 0 0 909559 1114917 0 0 -909559 880207 0 0 909559c255260,59466 556159,29352 821538,29352 507886,0 410752,-252211 410752,-938911l616145 0 0 909559 1114952 0 0 -909559c111100,0 684621,22144 777147,-14243 92630,-36387 119590,-114496 131996,-220883 23773,-204111 381,-684794 381,-967812l-909524 0 0 -997580 -1114952 0 0 997580 -616145 0c0,-288944 61129,-882009 -119140,-966426 -243824,-114184 -868217,-31154 -1113150,-31154z"/>
  </g>
 </g>
</svg>
