<?xml version="1.0" encoding="UTF-8"?>
<!DOCTYPE svg PUBLIC "-//W3C//DTD SVG 1.1//EN" "http://www.w3.org/Graphics/SVG/1.1/DTD/svg11.dtd">
<!-- Creator: CorelDRAW (Versão de avaliação) -->
<svg xmlns="http://www.w3.org/2000/svg" xml:space="preserve" width="120.472mm" height="106.475mm" version="1.1" style="shape-rendering:geometricPrecision; text-rendering:geometricPrecision; image-rendering:optimizeQuality; fill-rule:evenodd; clip-rule:evenodd"
viewBox="0 0 4539846 4012384"
 xmlns:xlink="http://www.w3.org/1999/xlink"
 xmlns:xodm="http://www.corel.com/coreldraw/odm/2003">
 <defs>
  <style type="text/css">
   <![CDATA[
    .fil0 {fill:#FEFEFE}
   ]]>
  </style>
 </defs>
 <g id="Camada_x0020_1">
  <metadata id="CorelCorpID_0Corel-Layer"/>
  <g id="_2060503640784">
   <path class="fil0" d="M2314258 113432c0,111556 136126,109125 214742,131065 247614,69090 75869,28538 317272,28538 110761,0 166461,38664 210141,126799 59695,120453 325578,-1021 514476,159407 30094,25557 60204,53025 79589,88881 10992,20334 21551,42157 28425,60600 5867,15741 7503,18812 10224,34428 8856,50854 -57027,29201 -140486,54917 -230211,70936 -358186,326192 -184945,349462 130187,17485 50534,-191743 395862,-191743 59104,0 221499,84250 230697,186049 12360,136838 150581,95683 150581,310497 0,34115 -98958,45202 -129380,56827 -254065,97081 -334234,430852 -163228,430852 99022,0 80286,-104426 115437,-168300 29695,-53952 107279,-106574 186038,-106574 34963,0 99678,90931 118980,120423 114665,175189 97266,420779 57743,614912 -25893,127172 -72316,256824 -137535,350148 -13871,19848 -13709,17512 -27506,34564 -74984,92657 -156305,128506 -277689,156788 -106382,-71242 -115746,-85558 -248141,-150871 -48869,-24106 -399141,-193398 -399141,-17602 0,114868 111269,98868 259804,156939 52716,20606 93505,40815 139321,64617 46694,24261 82181,51902 124018,79920 -32906,68585 1360,173599 -178792,291154 -186328,121580 -490743,119944 -704234,33260 -35849,-14557 -54480,-31805 -101196,-31805 -147314,0 -72647,339800 -70936,416743 -59997,0 -176790,22946 -230539,35468 -6749,-81103 -42617,-178622 -62050,-257155 -49445,-199804 -127266,-388446 -242967,-555054 -23873,-34375 -46589,-61146 -67390,-92213 161314,-37582 324248,-60505 493061,-83289 75244,-10152 109886,-29917 109886,-102915 0,-140437 -294933,-60871 -361069,-50730 -302274,46347 -422041,121663 -756159,121663 -236964,0 -523404,-128465 -548667,-364739 -7175,-67100 25052,-211610 -80881,-211610 -48578,0 -45375,4989 -86251,11381 -126837,19841 -437394,-81250 -523257,-182157 -30445,-35777 -56741,-80007 -68400,-135538 -14139,-67345 12477,-136088 -24389,-179549 -30170,-35570 -86666,-45481 -73555,-120954 9903,-57027 66501,-115965 66501,-146866 0,-111398 -94297,-298155 59767,-472244 90340,-102078 215319,-69617 242628,-191849 26115,-116869 96735,-213728 229620,-213728 75922,0 122066,36233 179368,-6783 37424,-28093 44022,-96117 84065,-137659 94097,-97609 211935,-85041 330647,-112698 52373,78209 115268,172114 115268,301472 0,71641 -25184,93950 -38276,148810 -10548,44200 25761,108334 64877,108334 71505,0 93524,-13687 121859,-82083 21600,-52158 28881,-77418 28881,-148460 55222,-26496 141865,-46381 203866,-17681 86225,39911 53726,124086 159674,124086 174149,0 43958,-319209 -203938,-319209 -58877,0 -131592,4654 -177341,26601 -14309,-29827 -24540,-67541 -39120,-102745 -16600,-40081 -41403,-66248 -49547,-101193 30328,-2525 102029,-32970 135048,-42285 159056,-44882 88120,-188254 15692,-188254 -119816,0 -268999,112268 -345426,115652 -231598,10258 -394476,64033 -523532,256760 -118780,0 -227121,6158 -316741,82268 -35419,30076 -68502,65001 -90890,104181 -68415,119718 -9195,107237 -130375,171100 -64176,33821 -118829,83398 -161310,140162 -81733,109204 -107569,218563 -107569,371243 0,67383 17734,100737 17734,159603 0,27664 -44090,89017 -53202,169808l0 56726c4496,38374 18812,79788 49381,123098 61674,87378 31112,48258 50455,153483 60924,331400 471049,472244 751384,472244 0,320008 376086,558612 673883,558612l310749 -9361c71999,-4571 67616,10352 103827,46996 226319,229020 275677,555183 360485,854280 57265,201948 110738,145803 408031,96105 315641,-52765 164675,-81537 164675,-367339 61251,1368 107784,26650 168866,35080 188133,25968 365214,11497 527948,-56484 45492,-19000 92672,-45809 131656,-72278 125337,-85109 222576,-229130 235559,-385126 114013,-26563 183623,-52984 263256,-118019 20330,-16607 36211,-26842 54020,-43517 65574,-61398 116892,-144250 157074,-224201 12221,-24310 18503,-43890 28580,-68958 19403,-48262 33422,-97315 46883,-148188 27340,-103341 48446,-222392 53134,-342962l0 -97466c-6779,-166446 -50221,-328480 -157376,-448556 -64994,-72832 -78782,-56070 -61414,-163571 14595,-90355 -23515,-207933 -73559,-277806 -19773,-27611 -40058,-39139 -60223,-63912 -21845,-26842 -20538,-55003 -34733,-89405 -22791,-55245 -66486,-106909 -109057,-139212 -38076,-28892 -106985,-76186 -159787,-88486 0,-156535 -92955,-308824 -207612,-395335 -114292,-86240 -277727,-136680 -475138,-136680 -165515,-247173 -438023,-166390 -531012,-178102 -74716,-9406 -355676,-148414 -355676,18499z"/>
   <path class="fil0" d="M975359 1931144c-80870,0 -195071,-15439 -195071,97537 0,38132 46498,88667 70933,88667 74724,0 234488,-27630 305496,84646 75033,118622 -5965,278895 137848,278895 141748,0 78910,-249879 47135,-322002 -12715,-28858 -22215,-32363 -29401,-59273 72398,-108115 168470,-110335 168470,-390142 0,-83598 -124478,-114405 -170147,-36535 -30547,52091 27894,102998 -61444,221687 -109351,145287 -88252,36520 -273819,36520z"/>
   <path class="fil0" d="M2065985 1266128c0,62540 48088,160213 70801,204074 43092,83210 82573,110440 115403,159467 -68389,129248 -125356,105572 -181090,146982 -108047,80274 12424,302482 285490,28357 16264,-16321 16592,-16355 28052,-34021 38897,-59963 4993,-35069 131570,-6331 47979,10891 171112,34368 220138,-5502 51989,-42285 35325,-128321 -23888,-155277 -32627,-14851 -85177,-6131 -128868,-13005 -83662,-13167 -140113,-46445 -194886,-88855 -42783,-33132 -89718,-108017 -112630,-162244 -26944,-63761 -29676,-162316 -121421,-162316 -38619,0 -88670,45454 -88670,88670z"/>
   <path class="fil0" d="M3670892 2356754c-9918,119194 -50214,195862 35709,345569 102459,178520 230298,123411 230298,17971 0,-92767 -97537,-31907 -97537,-248269 0,-129007 33844,-71773 153849,-129893 267865,-129735 95921,-224785 76691,-224785 -94274,0 -68208,15526 -141579,53492 -97308,50350 -205287,46265 -281608,-38181 -45349,-50184 -51642,-112845 -135425,-112845 -45398,0 -80041,40167 -84563,82185 -4443,41279 29898,81378 51506,110471 34756,46796 38860,48827 83383,85090 26801,21830 69410,55878 109276,59194z"/>
   <path class="fil0" d="M656149 1141990c0,247783 -243031,179180 -236761,318154 705,15635 13276,48168 26111,60946 57766,57472 135112,8422 192663,-24675 40676,-23390 70721,-55486 106657,-79551 148113,128740 524636,42756 488618,-106966 -36373,-151218 -183879,-8306 -293547,-8306 -46238,0 -83775,-27664 -115271,-44331 20824,-43401 48767,-328076 -97534,-328076 -42006,0 -78447,36414 -85923,74317 -7051,35762 14987,85761 14987,138489z"/>
   <path class="fil0" d="M2828535 1328193c0,88746 76344,80900 147133,172080 203765,262461 12473,435570 12473,528408 0,81868 120118,129802 171794,38788 112000,-197257 138240,-455098 -10827,-643099 -30905,-38973 -59168,-74004 -96746,-107192 -36237,-32009 -86439,-77652 -135153,-77652 -47761,0 -88674,40465 -88674,88667z"/>
   <path class="fil0" d="M2128054 2330153c-54254,0 -68698,2012 -122021,-10985 -18205,-4435 -53236,-18552 -76355,-21118 -56187,-6233 -99829,44554 -98103,92819 3855,107931 190639,125488 278744,125488 253515,0 461074,-212089 461074,-310339 0,-84073 -65344,-88670 -115268,-88670 -32099,0 -54333,42082 -69632,63373 -19667,27374 -35495,49219 -61097,71905 -41874,37107 -121316,77527 -197343,77527z"/>
   <path class="fil0" d="M2509329 609979c95084,0 153328,27460 192490,100115 37266,69139 27543,157025 126716,157025 45387,0 88674,-46634 88674,-88670 0,-73766 -70454,-190270 -130650,-250632 -137799,-138172 -454480,-143945 -460788,-5449 -1715,37616 21567,70729 52686,85716 41290,19878 78469,1896 130873,1896z"/>
   <path class="fil0" d="M2881737 2729166c0,101034 109276,112781 155367,66693 46087,-46087 34341,-155363 -66697,-155363 -44580,0 -88670,44086 -88670,88670z"/>
   <path class="fil0" d="M1959581 86831c0,21193 10423,45232 21254,58550 52874,65012 164950,18631 164950,-58550 0,-113014 -186204,-118497 -186204,0z"/>
  </g>
 </g>
</svg>
