<?xml version="1.0" encoding="UTF-8"?>
<!DOCTYPE svg PUBLIC "-//W3C//DTD SVG 1.1//EN" "http://www.w3.org/Graphics/SVG/1.1/DTD/svg11.dtd">
<!-- Creator: CorelDRAW (Versão de avaliação) -->
<svg xmlns="http://www.w3.org/2000/svg" xml:space="preserve" width="63.7017mm" height="9.1193mm" version="1.1" style="shape-rendering:geometricPrecision; text-rendering:geometricPrecision; image-rendering:optimizeQuality; fill-rule:evenodd; clip-rule:evenodd"
viewBox="0 0 8174111 1170176"
 xmlns:xlink="http://www.w3.org/1999/xlink"
 xmlns:xodm="http://www.corel.com/coreldraw/odm/2003">
 <defs>
  <style type="text/css">
   <![CDATA[
    .fil0 {fill:#FEFEFE;fill-rule:nonzero}
   ]]>
  </style>
 </defs>
 <g id="Camada_x0020_1">
  <metadata id="CorelCorpID_0Corel-Layer"/>
  <path class="fil0" d="M322285 40408c0,47953 -1758,119991 -5274,216371 -3503,96380 -5261,168418 -5261,216615 0,23341 244,58231 744,104169 500,46182 757,80815 757,103656 0,107428 -9791,194531 -29372,261051 -26600,90105 -74040,162387 -142318,216858 -9277,7276 -16053,11048 -19825,11048 -3516,0 -7532,-2759 -11792,-8033 -34890,-39663 -69279,-74797 -103412,-105927 -4273,-4016 -6531,-7532 -6531,-11048 0,-4016 2759,-8277 8033,-13294 33388,-28872 55973,-50455 67765,-64506 18324,-23598 31887,-52213 41421,-86102 12293,-44924 18324,-137801 18324,-278361l-757 -110944c0,-45925 -2759,-120222 -8533,-222389 -5774,-98638 -8777,-172678 -8777,-222633 0,-14308 7019,-21339 21327,-21339 9290,0 23097,757 41665,2258 18824,1514 32631,2258 41922,2258 9290,0 23097,-744 41165,-2258 18067,-1501 31631,-2258 40408,-2258 12306,0 18324,5030 18324,14808z"/>
  <path id="_1" class="fil0" d="M1446022 539400c0,145590 -46682,270842 -139803,375755 -96893,108686 -217628,163144 -361704,163144 -144577,0 -265299,-54215 -361692,-162387 -93121,-104426 -139803,-229921 -139803,-376512 0,-144820 47183,-270072 141317,-375499 96881,-109186 217115,-163901 360177,-163901 143576,0 264054,54715 360947,163901 93621,104926 140560,230178 140560,375499zm-177708 -2002c0,-96136 -29873,-179723 -89605,-251004 -62748,-75554 -141317,-113203 -235939,-113203 -93634,0 -171690,38149 -233938,114704 -58731,71538 -88104,155625 -88104,251504 0,95636 29372,179466 88104,251004 62247,76555 140304,114704 233938,114704 94879,0 173936,-38149 236684,-114704 59245,-71538 88861,-156125 88861,-253006z"/>
  <path id="_2" class="fil0" d="M2467348 1019825c1001,10792 -5274,16309 -18581,16309 -7276,0 -25099,-7019 -53458,-21083 -28358,-14051 -46682,-24098 -54471,-30116 -90105,61246 -197033,91863 -320527,91863 -144076,0 -262796,-53958 -355917,-161643 -88104,-101911 -132284,-226149 -132284,-372740 0,-149850 43423,-275846 130269,-377757 91876,-107685 211354,-161643 358432,-161643 75554,0 148349,17823 218373,53214 69780,35634 125752,84331 167417,146078 6275,9290 9534,16322 9534,21339 0,6775 -17567,29616 -52700,68022 -35390,38406 -55472,57731 -61003,57731 -4016,0 -18824,-15065 -44924,-44937 -31374,-36391 -61246,-64249 -89861,-83330 -44424,-29873 -91106,-44924 -139803,-44924 -92620,0 -168675,38650 -227907,116218 -53971,70524 -81085,154111 -81085,249990 0,93878 27614,176708 83086,248746 60246,78056 136043,116962 227162,116962 89605,0 171934,-24599 246988,-73539 -1014,-13307 -5030,-59989 -12306,-140060 -5774,-56730 -8790,-103168 -8790,-139059 0,-8277 5531,-12550 16322,-12550 9290,0 23085,757 41922,2015 18568,1258 32619,1758 41909,1758 9290,0 23598,-500 42679,-1514 19068,-1001 33376,-1501 42666,-1501 10291,0 15565,8033 15565,23598 0,17310 -757,43166 -2015,77556 -1258,34633 -1758,60489 -1758,77812 0,70524 4773,166416 14308,286895l757 10291z"/>
  <path id="_3" class="fil0" d="M3484914 1049697c0,4016 -5774,6018 -17580,6018 -9277,0 -23085,-500 -40908,-1501 -18067,-1014 -31631,-1514 -40908,-1514 -9290,0 -23354,500 -42178,1514 -18568,1001 -32631,1501 -41909,1501 -13563,0 -30873,-37148 -51956,-111445 -21083,-74296 -42422,-111945 -64262,-112946 -17823,-1014 -64262,-1514 -139803,-1514l-114460 0c-79570,0 -124995,500 -136300,1514 -17310,1501 -36892,39407 -58731,113446 -21840,74053 -38650,110944 -50455,110944l-164646 0c-9791,0 -14821,-3516 -14821,-10792 0,-5274 3516,-17066 10548,-35146l183483 -491460c15565,-39407 62504,-153610 140817,-342367 14051,-31374 33132,-78557 56973,-141561 6018,-18824 12293,-28115 19325,-28115 9290,0 23341,1258 41665,3516 18324,2515 32131,3760 41421,3760 9034,0 22340,-1245 40408,-4016 18067,-2759 31374,-4016 39907,-4016 4273,0 10548,8790 18581,26357 11292,27614 68022,175963 169919,445034 144076,378501 215870,569272 215870,572788zm-338607 -408387c-4517,-11792 -28115,-74797 -70781,-188500 -41421,-110444 -68522,-183483 -82073,-219373 -101667,258780 -152365,394567 -152365,406616 0,16823 18324,26357 55228,29372 2002,500 25600,757 71281,757l74797 0c69279,0 103912,-9547 103912,-28872z"/>
  <path id="_4" class="fil0" d="M4202266 40408c0,47953 -1758,119991 -5274,216371 -3503,96380 -5261,168418 -5261,216615 0,23341 244,58231 744,104169 500,46182 757,80815 757,103656 0,107428 -9791,194531 -29372,261051 -26600,90105 -74040,162387 -142318,216858 -9277,7276 -16053,11048 -19825,11048 -3516,0 -7532,-2759 -11792,-8033 -34890,-39663 -69279,-74797 -103412,-105927 -4273,-4016 -6531,-7532 -6531,-11048 0,-4016 2759,-8277 8033,-13294 33388,-28872 55973,-50455 67765,-64506 18324,-23598 31887,-52213 41421,-86102 12293,-44924 18324,-137801 18324,-278361l-757 -110944c0,-45925 -2759,-120222 -8533,-222389 -5774,-98638 -8777,-172678 -8777,-222633 0,-14308 7019,-21339 21327,-21339 9290,0 23097,757 41665,2258 18824,1514 32631,2258 41922,2258 9290,0 23097,-744 41165,-2258 18067,-1501 31631,-2258 40408,-2258 12306,0 18324,5030 18324,14808z"/>
  <path id="_5" class="fil0" d="M5196491 40164c0,56973 -2258,142061 -6775,255521 -4530,113446 -6788,198534 -6788,255521 0,18568 257,46426 757,83330 500,37148 757,64506 757,82830 0,102411 -9547,173448 -28615,213099 -29616,60746 -86602,101911 -171434,123494 -51956,13307 -125252,19825 -219887,19825 -171677,0 -284123,-28358 -337593,-85332 -41165,-43923 -61747,-132284 -61747,-264554 0,-16065 257,-43423 757,-82085 500,-38406 757,-68522 757,-90606 0,-57987 -2515,-164415 -7532,-319783 0,-40164 -2258,-100153 -6775,-180211 -513,-5774 -757,-9791 -757,-11549 0,-10291 6275,-15565 19081,-15565 20069,0 47439,257 81816,757 39663,500 66777,744 81072,744 11305,0 16823,4273 16823,13307 0,74296 -1501,186498 -4517,335835 -3015,149607 -4517,261552 -4517,335848 0,84331 18824,141561 56730,171434 32118,26357 91863,39663 178453,39663 79070,0 135042,-10804 168431,-32388 42165,-26857 63248,-77312 63248,-151352 0,-77556 -1258,-193774 -3760,-348898 -2515,-155111 -3773,-271330 -3773,-348885 0,-7789 7032,-12550 21339,-14564 10291,-1501 24842,-1501 43923,0 22584,2015 33132,3015 32375,3015 8790,0 22096,-757 39920,-2258 17811,-1501 31117,-2258 39907,-2258 12293,0 18324,5274 18324,16065z"/>
  <path id="_6" class="fil0" d="M6273533 40164c0,56473 -2015,141561 -6031,255264 -4016,113703 -6018,199048 -6018,255777 0,53458 500,133528 1501,240200 1001,106684 1514,186498 1514,239969 0,16309 -6275,24342 -18581,24342 -7532,0 -18568,-757 -33388,-2258 -14808,-1501 -26100,-2258 -33376,-2258 -8033,0 -20082,757 -36391,2258 -16322,1501 -28371,2258 -36404,2258 -8777,0 -19068,-7776 -31117,-23341 -105670,-142819 -265568,-355673 -480168,-639052 -33388,-43179 -52713,-67265 -57987,-72038 -4761,0 -7276,10035 -7276,30116 0,75554 1258,188757 3516,340108 2502,151108 3760,264554 3760,339865 0,16309 -5017,24342 -14808,24342 -8277,0 -21083,-757 -38149,-2258 -17066,-1501 -29873,-2258 -38149,-2258 -8790,0 -22096,757 -39407,2258 -17323,1501 -30630,2258 -39407,2258 -12306,0 -18324,-5017 -18324,-14808 0,-53714 2502,-135042 7519,-243728 5030,-108429 7532,-190001 7532,-244473 0,-59232 -2258,-166160 -6519,-320527 -757,-40164 -3272,-100396 -7032,-180724l-757 -9534c-500,-7532 5274,-11292 17580,-11805 31874,-500 56717,-1501 74797,-3003 7019,-500 19825,-2515 38906,-6031 16065,-3003 28859,-4517 38149,-4517 4517,0 12293,7032 23085,21339 112702,154868 285150,385533 517573,691252 10291,12806 19825,23854 28615,33132 3516,-20582 5017,-67508 5017,-141061 0,-63749 -2258,-159384 -7032,-286895 -4761,-127510 -7019,-222633 -7019,-285894 0,-16309 5017,-24342 14808,-24342 8777,0 22084,757 39907,2258 18067,1501 31374,2258 40164,2258 9277,0 23341,-757 41909,-2258 18824,-1501 32631,-2258 41922,-2258 10291,0 15565,5274 15565,16065z"/>
  <path id="_7" class="fil0" d="M7113622 163157c0,12793 -4517,19068 -13294,19068 -13807,0 -100653,-3003 -260795,-9034 -4016,149594 -6031,269328 -6031,359690 0,56216 2015,140804 6031,253763 4016,112702 6018,197290 6018,253506 0,10291 -7019,15565 -21327,15565 -8790,0 -22096,-757 -40420,-2258 -18067,-1501 -31618,-2258 -40908,-2258 -8777,0 -22327,757 -40395,2258 -18080,1501 -31631,2258 -40420,2258 -12293,0 -18324,-6018 -18324,-18324 0,-55973 2258,-139803 6788,-252005 4517,-111945 6775,-196289 6775,-252505 0,-87346 -2515,-207324 -7532,-359690 -126753,8033 -219874,12049 -278862,12049 -5774,0 -8790,-2515 -8790,-7276 0,-9034 2258,-21583 6775,-38406 5531,-21583 8790,-34389 9791,-38149 1001,-17323 4517,-41165 10548,-71538 2502,-6275 6519,-9534 12550,-9534l8777 744c173448,10047 287908,15065 343368,15065 48941,0 129255,-3516 240456,-10792 76054,-4773 107685,-7276 94879,-7276 12806,0 19825,4517 21339,13294 -1014,-5274 -1514,18324 -1514,71294 0,6519 757,16309 2258,29860 1514,13563 2258,23598 2258,30630z"/>
  <path id="_8" class="fil0" d="M8174111 539400c0,145590 -46682,270842 -139803,375755 -96893,108686 -217628,163144 -361704,163144 -144577,0 -265299,-54215 -361692,-162387 -93121,-104426 -139803,-229921 -139803,-376512 0,-144820 47183,-270072 141317,-375499 96881,-109186 217115,-163901 360177,-163901 143576,0 264054,54715 360947,163901 93621,104926 140560,230178 140560,375499zm-177708 -2002c0,-96136 -29873,-179723 -89605,-251004 -62748,-75554 -141317,-113203 -235939,-113203 -93634,0 -171690,38149 -233938,114704 -58731,71538 -88104,155625 -88104,251504 0,95636 29372,179466 88104,251004 62247,76555 140304,114704 233938,114704 94879,0 173936,-38149 236684,-114704 59245,-71538 88861,-156125 88861,-253006z"/>
 </g>
</svg>
