<?xml version="1.0" encoding="UTF-8"?>
<!DOCTYPE svg PUBLIC "-//W3C//DTD SVG 1.1//EN" "http://www.w3.org/Graphics/SVG/1.1/DTD/svg11.dtd">
<!-- Creator: CorelDRAW (Versão de avaliação) -->
<svg xmlns="http://www.w3.org/2000/svg" xml:space="preserve" width="78.3912mm" height="80.2419mm" version="1.1" style="shape-rendering:geometricPrecision; text-rendering:geometricPrecision; image-rendering:optimizeQuality; fill-rule:evenodd; clip-rule:evenodd"
viewBox="0 0 10536353 10785100"
 xmlns:xlink="http://www.w3.org/1999/xlink"
 xmlns:xodm="http://www.corel.com/coreldraw/odm/2003">
 <defs>
  <style type="text/css">
   <![CDATA[
    .fil0 {fill:#FEFEFE}
    .fil1 {fill:#001740}
    .fil3 {fill:#1469C3}
    .fil5 {fill:#43BFF2}
    .fil4 {fill:#FA6642}
    .fil2 {fill:#FDAF2A}
   ]]>
  </style>
 </defs>
 <g id="Camada_x0020_1">
  <metadata id="CorelCorpID_0Corel-Layer"/>
  <g id="_2194042981280">
   <ellipse class="fil0" cx="5215905" cy="5314439" rx="4603169" ry="5118796"/>
   <g>
    <path class="fil1" d="M4951687 10702507c-18266,-113171 -1078753,-1045192 -1252838,-1224747l-953203 -946685c-144192,-143171 -172162,-161974 -207942,-443168 76572,45470 1249209,1305176 1530174,1423643 -141894,-468531 -1757833,-1748398 -1918517,-2100397 -33535,-73454 -126545,-382483 -136786,-454095 171437,82029 562764,457052 724241,598691 367591,322443 1945775,1860157 2134039,1914082 -65819,-285589 -464391,-566446 -669228,-723810 -279030,-214353 -468369,-461998 -702036,-693770 -192552,-190979 -840113,-654523 -1130312,-952518 -60618,-62244 -114865,-102486 -181947,-161571 -67755,-59650 -117512,-121222 -183063,-182606 -108373,-101478 -239756,-221275 -343747,-342591 -226530,-264258 128332,-865879 554524,-486326 240482,214165 353532,576016 1087718,1018270 440870,265549 919091,465896 1324356,780974 323707,251664 575505,669308 1342151,763178 438154,53655 831659,-41975 1103000,-256597 547522,-433087 278277,-1685441 1008351,-1788895 270549,-38346 404633,16572 438894,255535 51666,360440 -221691,1206252 -284043,1827953 -16411,163641 -73292,1252824 -53508,1325377 424203,-191490 975287,-758272 1251131,-1137207 1168430,-1605160 1471572,-3780798 605182,-5573671 -1113444,-2304172 -3704253,-3729831 -6227979,-2906102 -1244693,406260 -2194065,1194236 -2793549,2012777 -722211,986133 -1134492,2202224 -987007,3763997 87472,926362 510143,1855238 1009668,2576858 279204,403343 404660,501541 698717,811148 306180,322363 870771,640088 1293039,813783 429754,176786 1402339,516474 1920520,488490zm-1084627 -4848234c29180,92580 208116,150012 289124,191423 108184,55322 207444,104260 327336,152579 289688,116746 517616,131047 858245,137028 -217296,-1668264 747695,-2496657 1500577,-3732976 209649,-344271 465883,-823809 463652,-1327810 -200522,-101706 -228708,-238896 -782116,-431179 -329379,-114434 -690827,-166947 -1084949,-169797 169998,490426 704805,919709 -176181,1974323 -148050,177230 -267296,328626 -403988,510896 -254702,339607 -485775,721579 -665236,1166400 -142902,354163 -343276,1084519 -326462,1529112zm-2021500 -1777604l310347 -416286c623354,-868527 1034735,-1367017 2078421,-1767215 325427,-124784 1114680,-288788 1190889,-341744 13831,-305266 -113722,-539632 -256167,-705665 -113668,-132499 -83440,-153453 -336838,-136773 -614551,40483 -1313200,391905 -1756072,714388 -704590,513046 -1354114,1747497 -1230580,2653295z"/>
    <path class="fil2" d="M4951687 10702507c312914,226557 1433078,-74421 1788128,-171947 446931,-122781 1226171,-376367 1442150,-678125 -19785,-72553 37096,-1161736 53508,-1325377 62352,-621701 335709,-1467513 284043,-1827953 -34260,-238963 -168345,-293882 -438894,-255535 -730074,103453 -460829,1355807 -1008351,1788895 -271342,214622 -664846,310252 -1103000,256597 -766646,-93870 -1018445,-511514 -1342151,-763178 -405265,-315078 -883486,-515425 -1324356,-780974 -734187,-442254 -847237,-804105 -1087718,-1018270 -426192,-379553 -781054,222068 -554524,486326 103991,121316 235374,241113 343747,342591 65550,61384 115308,122956 183063,182606 67083,59085 121330,99327 181947,161571 290199,297995 937760,761539 1130312,952518 233667,231772 423007,479418 702036,693770 204837,157364 603408,438222 669228,723810 -188264,-53924 -1766448,-1591638 -2134039,-1914082 -161477,-141638 -552804,-516662 -724241,-598691 10242,71612 103252,380642 136786,454095 160684,351999 1776623,1631866 1918517,2100397 -280965,-118467 -1453602,-1378173 -1530174,-1423643 35779,281194 63749,299997 207942,443168l953203 946685c174084,179555 1234572,1111576 1252838,1224747z"/>
    <path class="fil3" d="M2881075 6447964c66774,-1369920 164676,-1926864 912169,-2660526 313062,-307255 1627754,-1342783 1581141,-1977522 -1188873,120321 -2144725,782627 -2838266,1636181 -294446,362389 -686284,979924 -539068,1646490 100268,453961 551110,1261803 884024,1355377z"/>
    <path class="fil4" d="M5674544 5803131c592535,37123 1004950,-41720 1508991,-206530 393733,-128735 875556,-338639 1149156,-567266 42298,-374056 -475856,-1381587 -665128,-1528091 -640908,846497 -858285,986725 -1579824,1641167 -122848,111424 -421085,389620 -413195,660720z"/>
    <path class="fil5" d="M8483630 5291079c-855395,413881 -1264383,605451 -2272936,753958 -79771,11747 -169407,25752 -258667,31814 -77338,5255 -250119,-15363 -285817,39906 -66559,103090 29798,437536 67378,525707 63588,149165 159353,281543 240939,377604 76666,90281 211799,193130 332524,263465 420789,245132 2160813,-1132852 2176579,-1992454z"/>
    <path class="fil5" d="M8629932 4742052c72472,-43158 26223,1694 73454,-75013 252081,-409418 18790,-1407379 -131047,-1799607 -196356,-513947 -551446,-1140339 -972558,-1320471 -65026,102284 -319029,726176 -278895,879723 28709,109891 406649,574901 498221,712870 466407,702735 479471,1000179 741431,1500550 5027,9610 18830,34462 25497,44650 2984,4583 6882,10175 9946,14529l33951 42768z"/>
    <path class="fil5" d="M5341764 6335303c-340629,-5981 -568556,-20282 -858245,-137028 -119891,-48319 -219151,-97257 -327336,-152579 -81007,-41411 -259944,-98843 -289124,-191423 -76827,204743 -36854,1202744 392590,1484301 377765,247672 1202153,190711 1676140,121934 -42338,-94623 -119287,-164528 -181221,-243546 -69932,-89220 -129958,-162028 -188910,-245831 -116047,-165012 -190993,-404862 -223896,-635827z"/>
   </g>
  </g>
 </g>
</svg>
