<?xml version="1.0" encoding="UTF-8"?>
<!DOCTYPE svg PUBLIC "-//W3C//DTD SVG 1.1//EN" "http://www.w3.org/Graphics/SVG/1.1/DTD/svg11.dtd">
<!-- Creator: CorelDRAW (Versão de avaliação) -->
<svg xmlns="http://www.w3.org/2000/svg" xml:space="preserve" width="39.8858mm" height="27.8161mm" version="1.1" style="shape-rendering:geometricPrecision; text-rendering:geometricPrecision; image-rendering:optimizeQuality; fill-rule:evenodd; clip-rule:evenodd"
viewBox="0 0 164478 114706"
 xmlns:xlink="http://www.w3.org/1999/xlink"
 xmlns:xodm="http://www.corel.com/coreldraw/odm/2003">
 <defs>
  <style type="text/css">
   <![CDATA[
    .fil0 {fill:#FEFEFE}
   ]]>
  </style>
 </defs>
 <g id="Camada_x0020_1">
  <metadata id="CorelCorpID_0Corel-Layer"/>
  <path class="fil0" d="M59319 64656c5743,5346 10171,13264 22910,13264 12738,0 17217,-7906 22921,-13264 5786,2214 38914,35837 40837,40264l-127515 0c1922,-4424 35046,-38053 40848,-40264zm54354 -7302c2147,-3742 33175,-36192 40417,-39599l92 79203c-6840,-3154 -15670,-13692 -21156,-19119 -6614,-6543 -15067,-12471 -19352,-20485zm-103305 39604l-17 -79203c4584,2149 2042,584 5765,3945 1925,1738 3148,3165 5052,5068 7937,7935 25747,23841 29617,30586 -3274,6123 -25955,27353 -33933,34948 -3669,3493 -1970,2533 -6484,4657zm135635 -87177c-2456,5763 -24852,26455 -30178,31694 -36445,35846 -30830,36001 -67920,-716 -5279,-5226 -26982,-25185 -29686,-31094l127784 116zm-145069 91215c1260,11567 9724,13651 21627,13658l103310 -45c34837,1 37846,3550 37824,-32525 -12,-19300 1880,-50365 -177,-68244 -1374,-11935 -9368,-13781 -21622,-13788l-103311 45c-34870,-1 -37845,-3564 -37824,32526 12,19671 -1830,49992 172,68374z"/>
 </g>
</svg>
