<?xml version="1.0" encoding="UTF-8"?>
<!DOCTYPE svg PUBLIC "-//W3C//DTD SVG 1.1//EN" "http://www.w3.org/Graphics/SVG/1.1/DTD/svg11.dtd">
<!-- Creator: CorelDRAW (Versão de avaliação) -->
<svg xmlns="http://www.w3.org/2000/svg" xml:space="preserve" width="139.055mm" height="108.926mm" version="1.1" style="shape-rendering:geometricPrecision; text-rendering:geometricPrecision; image-rendering:optimizeQuality; fill-rule:evenodd; clip-rule:evenodd"
viewBox="0 0 2457387 1924951"
 xmlns:xlink="http://www.w3.org/1999/xlink"
 xmlns:xodm="http://www.corel.com/coreldraw/odm/2003">
 <defs>
  <style type="text/css">
   <![CDATA[
    .fil0 {fill:#FEFEFE}
   ]]>
  </style>
 </defs>
 <g id="Camada_x0020_1">
  <metadata id="CorelCorpID_0Corel-Layer"/>
  <g id="_2060109599344">
   <path class="fil0" d="M81912 266216c0,-115855 68451,-184304 184306,-184304l1924951 0c115855,0 184306,68449 184306,184304l0 61434 -2293563 0 0 -61434zm-81912 -40957l0 1187738c0,40094 21355,89382 38785,114801 75759,110491 125042,65678 125042,28544 0,-51023 -81915,-49775 -81915,-179184l0 -967595 2293563 0 0 967595c0,128179 -81915,129241 -81915,179184 0,37134 49284,81947 125042,-28544 17430,-25420 38785,-74707 38785,-114801l0 -1187738c0,-109659 -115604,-225259 -225261,-225259l-2006865 0c-109657,0 -225261,115600 -225261,225259z"/>
   <path class="fil0" d="M424924 1843037l-189425 0c-80500,0 -8226,-147224 9159,-175145 24177,-38829 57943,-64570 98354,-85952 9423,35298 68497,68002 112630,71674 -39407,82124 -30718,119548 -30718,189422zm46076 -276453c-40946,0 -63125,-15099 -66555,-56317l76792 5121c25732,0 22924,-4604 46076,-5121 -11489,23947 -19220,56317 -56314,56317zm112630 -76794c9845,-13440 20648,-15585 34399,-27037 12980,-10806 23385,-21305 32154,-34399 11042,7392 15064,11713 30719,15359 -15156,20683 -1401,-83 -46421,25253 -16585,9336 -28461,20325 -50851,20823zm-51196 -281575c0,23746 9997,70388 17425,90087 5309,14083 10241,27487 17287,39025 8532,13968 13837,20037 21604,34713 -32640,48741 -105723,73078 -177534,49544 -144549,-47368 -143568,-247402 -11344,-299855 55013,-21827 91421,-20083 142801,4570 0,28523 -10239,55893 -10239,81915zm51196 -153586c-266995,-141276 -494326,213180 -287953,395461 16205,14313 36293,23212 47335,39700 -49388,11506 -110516,56722 -140414,95086 -9660,12392 -15143,15944 -23543,27652 -11303,15753 -27623,43749 -35095,62178 -24833,61246 -54257,163221 3206,220831 14458,14496 40335,29415 67856,29415l547793 0c29951,0 45260,-55130 14458,-75893 -19353,-13047 -180476,-5653 -214401,-5740 -48088,-122 -56035,-11089 -56035,-46357 0,-82942 45407,-159309 98483,-208690 19612,-18246 38863,-27864 60223,-42166 9861,14726 15304,25073 29834,36719 11225,8999 30456,23709 41936,29744 46815,24617 92056,7800 92056,-20387 0,-92826 -73440,-3725 -102392,-127990 72632,34849 261100,-16644 261100,-81914 0,-28908 -18630,-40955 -46076,-40955 -27024,0 -65627,51196 -133108,51196 -110983,0 -189425,-80511 -189425,-189425 0,-96603 87816,-179184 184304,-179184 29258,0 48075,12690 74797,17978 15430,3052 23029,2023 34575,-5632 29541,-19581 48757,-94258 -124730,-94258 -90235,0 -168449,58371 -204783,112631z"/>
   <path class="fil0" d="M2001745 1653615c44133,-3672 103207,-36376 112630,-71674 87956,46539 143349,127796 143349,235500 0,16550 -18584,25596 -35835,25596l-189425 0c0,-69918 8829,-107005 -30718,-189422zm-71673 -143349l87033 5121c17649,0 19823,-3787 35835,-5121 -3430,41218 -25609,56317 -66555,56317 -37094,0 -44825,-32370 -56314,-56317zm-153588 -66553c15656,-3646 19678,-7967 30719,-15359 22786,34031 53265,43298 66553,61435 -27892,-622 -40153,-18436 -75073,-32439 -22631,-9075 -9421,3805 -22200,-13638zm138229 -317414c216117,-103696 342354,221824 135301,294009 -72735,25358 -147822,1841 -181378,-48268 28535,-53930 56316,-94563 56316,-163826 0,-26022 -10239,-53393 -10239,-81915zm-389085 -122867c0,14083 5019,22203 15589,30622 31965,25460 71941,-10146 102159,-10146 56464,0 108853,22873 139014,50411 117454,107252 37108,353871 -168408,311769 -65484,-13415 -60467,-44767 -103714,-44767 -34575,0 -66345,44023 -14830,81384 64533,46801 179170,68260 234974,41485 -7224,31006 -13694,48088 -37147,65245 -36857,26964 -65245,-3621 -65245,62745 0,42019 94585,57323 163826,-46076 47465,31783 72304,43756 107597,97184 30062,45507 51109,93986 51109,163912 0,49560 -74772,35835 -138228,35835 -114607,0 -148467,-15276 -148467,51196 0,12328 18388,30718 30716,30718l547793 0c48720,0 88995,-40987 99029,-90633 14961,-74007 -28857,-180552 -82083,-243725 -37041,-43958 -86595,-87212 -144936,-100803 15375,-22960 160625,-93201 119004,-272590 -23461,-101123 -115613,-193290 -216273,-193290 -62239,0 -84559,-389 -143349,30719 -102429,-152966 -348128,-131657 -348128,-51196z"/>
   <path class="fil0" d="M1085344 1510266c11236,48224 80180,87033 148469,87033 58283,0 127711,-41893 138229,-87033 61499,32541 112375,75310 143397,138180 16893,34238 28450,58966 35056,103177 2948,19742 9470,45006 2704,62432 -6026,15521 -22922,28982 -42931,28982l-563150 0c-19634,0 -34842,-12494 -41277,-25411 -18976,-38094 21661,-139901 36106,-169180 31649,-64141 80721,-105013 143397,-138180zm46076 -92151c89735,20904 101090,21774 194545,0 -36693,54792 -12819,35685 -33402,63870 -30977,42420 -96764,42420 -127741,0 -20270,-27759 2727,-9919 -33402,-63870zm97273 -476118c199131,0 285615,269215 103546,380001 -99125,60317 -254402,13404 -293721,-102795 -26379,-77968 -10370,-166137 48245,-219473 36640,-33337 90838,-57733 141930,-57733zm-286694 189424c0,134140 48243,205389 150747,269056l18197 12521c-63211,1407 -169675,88262 -199767,127882 -62455,82234 -92047,150268 -92047,271442 0,56321 56310,112630 112630,112630l593871 0c56319,0 112630,-56309 112630,-112630 0,-115132 -28120,-190975 -90529,-267842 -42309,-52110 -137524,-130063 -201285,-131482l5835 -4402c19853,-12917 37686,-19777 59285,-37990 192446,-162271 113520,-510522 -198230,-510522 -139509,0 -271336,131829 -271336,271337z"/>
   <path class="fil0" d="M1090466 803769c0,-37007 -14403,-41853 -46108,-87002 -22173,-31573 -38156,-61465 -66523,-61465 -30562,0 -49941,27758 -42067,51937 4307,13222 78236,116479 91317,124461 26994,16472 63381,-6576 63381,-27931z"/>
   <path class="fil0" d="M1366921 793528c0,44527 43413,48457 60043,40054 18216,-9202 35751,-41536 48876,-59124 12452,-16686 37373,-46881 44343,-63673 16092,-38760 -40079,-85483 -78876,-32292l-51724 71143c-11118,14449 -22661,22898 -22661,43892z"/>
   <path class="fil0" d="M1187736 604107c0,103306 -17879,174065 40957,174065 58836,0 40957,-70759 40957,-174065 0,-39555 -81914,-39555 -81914,0z"/>
   <path class="fil0" d="M573391 204783c0,55575 58931,40955 133108,40955 39555,0 39555,-81912 0,-81912 -74177,0 -133108,-14622 -133108,40957z"/>
   <path class="fil0" d="M163827 204783c0,55575 58931,40955 133108,40955 39554,0 39554,-81912 0,-81912 -74177,0 -133108,-14622 -133108,40957z"/>
   <path class="fil0" d="M368610 204783c0,55575 58931,40955 133108,40955 39554,0 39554,-81912 0,-81912 -74177,0 -133108,-14622 -133108,40957z"/>
  </g>
 </g>
</svg>
