<?xml version="1.0" encoding="UTF-8"?>
<!DOCTYPE svg PUBLIC "-//W3C//DTD SVG 1.1//EN" "http://www.w3.org/Graphics/SVG/1.1/DTD/svg11.dtd">
<!-- Creator: CorelDRAW (Versão de avaliação) -->
<svg xmlns="http://www.w3.org/2000/svg" xml:space="preserve" width="62.7379mm" height="52.578mm" version="1.1" style="shape-rendering:geometricPrecision; text-rendering:geometricPrecision; image-rendering:optimizeQuality; fill-rule:evenodd; clip-rule:evenodd"
viewBox="0 0 417456 349853"
 xmlns:xlink="http://www.w3.org/1999/xlink"
 xmlns:xodm="http://www.corel.com/coreldraw/odm/2003">
 <defs>
  <style type="text/css">
   <![CDATA[
    .fil0 {fill:#2F529C}
   ]]>
  </style>
 </defs>
 <g id="Camada_x0020_1">
  <metadata id="CorelCorpID_0Corel-Layer"/>
  <path class="fil0" d="M179572 108081c256,-6603 58,-13555 58,-20195 0,-3161 -489,-6937 252,-9920l4346 -21011c2438,-5848 5103,-11571 8483,-16911l8932 -11356 11624 -8673c5969,-4265 13912,-6459 20935,-8290l5745 -728c3240,-295 803,-974 3429,-974 8765,0 13043,-272 21011,1683 6391,1568 8353,1160 17348,5749 6324,3226 7315,4559 12610,8218 7182,4965 10651,10937 15060,18088 2641,4283 1814,3801 3918,7862 2857,5512 3407,11773 5082,18030l627 8499 -47054 -273c-377,-5519 -2045,-10112 -5752,-13961 -3241,-3366 -7739,-6770 -12710,-6770 -9624,0 -13456,120 -20550,7319 -3093,3139 -6192,10716 -6194,14969l85 28859c2580,0 6210,216 8661,5 3067,-264 2795,-1053 7277,-1015 17439,145 110853,-794 117339,178 886,8256 119,21230 120,30001 1,6727 464,11149 -4587,14207 -3251,1968 -4082,2748 -8624,2707 -9361,-85 -19454,-1158 -28325,1943 -1465,512 -1775,508 -3196,1033 -4762,1765 -11503,9115 -11503,14476 0,8013 -1067,11801 3467,18682 6551,9938 19823,10066 30542,9975 5524,-47 16206,2149 21492,3931 6515,2195 12845,5332 18613,8996 104,67 251,145 355,212l18243 18947c1688,2459 3507,5074 4607,8459l573 1642c50,114 125,256 178,367 53,111 136,250 190,360 3549,7244 3510,12936 4372,16539 430,1796 171,-635 662,2081 131,723 132,1426 142,2167 136,9646 0,18235 -3218,27470l-2771 7123c-3195,9255 -10158,16843 -17193,23528l-12257 8117c-1488,724 -1845,903 -3298,1650 -934,480 -759,470 -1878,963 -1261,555 -118,99 -1769,646l-24238 6150c-17127,3 -65198,741 -78862,-117l-56 -35494c0,-3646 4054,-7832 6887,-9463l3676 -1392c167,-52 297,-104 468,-155 2845,-838 6708,-504 9860,-504 10704,1 21408,0 32112,0 12756,0 25987,2202 36415,-4497l4135 -3177c77,-100 172,-236 245,-341 73,-106 154,-251 224,-360l830 -1441c4685,-7236 4909,-18010 1127,-23895 -1142,-1777 -1912,-3724 -3960,-5034l-3109 -2025c-3341,-2111 -6452,-3178 -10334,-4135 -884,-218 -893,-201 -1884,-241 -1394,-56 -3105,25 -4535,33 -1310,7 -3280,113 -4515,2 -3825,-345 -2824,-894 -8480,-1006l-17539 -4059c-2534,-880 -4255,-1264 -6651,-2499 -1931,-994 -4166,-2112 -6044,-3056l-5161 -3221c-7269,-4909 -12710,-10630 -17779,-17741l-3656 -5958c-1884,-2940 -3423,-8168 -4532,-11676 -3422,-10823 -3968,-24570 -1623,-35987l6122 -17702c58,-113 129,-259 188,-371l1249 -2094c1176,-1661 671,-607 1688,-2661l3493 -5050c2054,-3270 5873,-6365 8482,-9015 2926,-2970 8411,-6204 8557,-8880 -1653,-565 -57012,-759 -60989,-148 -821,7665 -121,93422 -121,108879 0,5336 1041,11522 -2196,16091l-2185 2424c-870,687 -1477,1168 -2620,1779 -1777,949 -3382,1018 -5366,1518 -4350,1095 -28557,677 -34768,319l-220 -131180 -29735 139c-1315,10757 671,54687 -112,70059 -146,2874 -1292,5933 -1908,9101 -2100,10809 -3440,10407 -6049,18085 -138,408 -98,437 -265,856 -52,128 -106,281 -163,404l-1388 2065c-9,13 -877,1669 -982,1874l-6392 9301c-2596,2716 -6289,7168 -9837,9257 -2110,1243 -2086,2072 -4594,3358 -3427,1757 -6402,4060 -10183,5489l-12952 3988c-1946,493 -2796,120 -4704,351 -3156,383 -715,833 -4484,981l-10773 0 -15289 -2935c-5615,-1274 -10101,-3923 -15134,-6456 -250,-126 -1490,-744 -1834,-956l-7667 -5794c-3957,-2459 -9591,-9936 -12359,-14095l-10256 -24586 -2317 -77915c0,-1725 975,-3865 2160,-5285 4962,-5947 8823,-5293 16539,-5292 6567,0 22946,-812 28360,225 754,9519 167,57844 93,72323 -33,6269 1280,9590 3859,14405 1969,3677 6647,6458 10726,7987 132,49 285,96 418,143 134,47 289,88 425,134 128,43 1246,401 1252,403 4187,1282 10485,981 14926,-679 6287,-2351 10817,-7880 12927,-14184l603 -2627c87,-664 29,-826 173,-1563l240 -918c2330,-8251 -696,-64163 1015,-68270 1258,-3019 3406,-4531 5787,-6179 2356,-1630 1302,-1252 4794,-1230 12390,78 59036,744 65243,-183zm-179572 5185l0 78206c1817,1082 305,1418 1697,6697 489,1853 233,2484 956,4825l2646 7989c1361,4163 3629,8461 5486,12099 2608,5111 5762,9346 9666,13354 1737,1783 2598,3869 4846,5279 1272,797 7277,6357 11982,9393 713,460 107,100 1055,612 110,59 260,130 371,188 112,58 261,127 374,185l11781 5276 15212 4029c2973,706 6209,-236 9158,427 7901,1777 7775,-191 14917,-132 922,8 1880,26 2787,-131 2964,-513 28,-135 2449,-691 6567,-1508 8099,-1487 14575,-3925l16041 -8039c3553,-2241 7745,-6052 10749,-9058 1019,-1019 1956,-1900 3112,-3087 1658,-1701 1260,-1840 2368,-3282 3334,-4336 6231,-8783 8759,-13782l6234 -16719c2549,-9688 1581,-7544 2402,-14765 301,-2650 815,-1092 975,-4515 849,-18111 -1435,-38543 98,-56345l8880 94 33 130043c4863,571 45946,704 49412,-83 5051,-1147 7306,-2029 10687,-5149 1562,-1441 3234,-2954 4234,-4793 3473,-6392 3921,-13609 3920,-20987 -3,-16526 -1,-33051 -1,-49577 0,-15503 -956,-34292 96,-49559l23826 146 -7679 13431c-3288,6596 -4923,12442 -6465,19453l-846 7498c-381,2622 -470,691 -848,2964 -785,4726 -98,11577 759,15771 447,2189 -126,4086 450,6312 1924,7448 3387,13838 6766,20738 2162,4415 4622,9152 7785,13101 930,1160 2274,2211 3391,3360 1636,1682 1612,2978 3207,4145 841,616 843,284 2118,1266 580,446 1159,1091 1701,1633 1248,1247 2155,2330 3531,3243l6084 4074c106,69 249,154 355,223 5606,3676 12406,7056 18915,8721 3859,987 9481,2984 13362,3213l6209 941c4279,725 10080,-658 19527,1226 813,162 3733,1548 4595,2102 4652,2990 6568,8718 4354,13838 -538,1246 -242,794 -1371,1958 -639,658 -1075,1106 -1693,1681 -2021,1880 124,307 -2392,1622 -2709,1416 -3756,1288 -6498,1900 -12780,2855 -60845,-1398 -70129,1537 -184,58 -709,218 -884,277l-1572 615c-3513,1744 -6575,4093 -8693,7506l-1423 2010c-621,894 306,-800 -670,1059 -2477,4718 -1854,7811 -1854,13824l0 41126 97353 0c1220,-2612 -437,119 4815,-1365l18964 -6008c121,-47 267,-109 385,-159l12391 -7161c3956,-2616 12261,-9355 14679,-13524l10980 -17855c77,-159 525,-1119 537,-1149l3818 -11211c601,-1860 295,-6323 1662,-6685l0 -29151c-1690,-516 -833,-1677 -1010,-3710 -262,-3024 -1183,-3689 -1827,-6339 -186,-767 -192,-1156 -367,-1898 -965,-4110 -2642,-6654 -4582,-10566 -611,-1233 -1138,-2393 -1624,-3366l-3786 -5818c-2951,-4325 -7409,-10576 -11666,-13687l-11650 -7983c-2790,-1710 -4264,-2955 -7953,-4400l-12837 -4615c-2183,-725 315,-200 -2448,-658 -8253,-1369 -6136,-1740 -14652,-2059 -3303,-124 -1938,-514 -4064,-907 -3995,-739 -9495,719 -14025,-645 -2711,-816 -7232,-1733 -9426,-5816 -391,-726 -447,-1095 -767,-2102 -2206,-6956 1140,-12093 6759,-14277 8486,-3298 27515,846 36066,-3474 5657,-2859 6864,-3604 10797,-9447l2773 -7460 150 -49144 -133245 -106c-367,-2071 -465,-16612 -116,-18674 73,-434 975,-3196 1190,-3769 2021,-5392 8586,-7598 11221,-7174 149,24 583,177 744,224 122,37 277,102 404,143 132,43 287,101 423,146 3365,1117 4650,1872 7071,4809 3240,3933 2851,9477 2888,16437l68264 -148c13,-3411 -5,-6822 8,-10232 34,-9024 -576,-4937 -949,-8496 -451,-4314 360,-1411 -939,-6732l-1908 -7501c-193,-784 -191,-1156 -374,-1896l-4159 -10546c-1286,-3485 -6699,-11843 -9114,-14490 -1579,-1732 -993,-1311 -2125,-2879l-6957 -7188c-1425,-1543 -1186,-1234 -2795,-2203 -1013,-610 18,224 -1369,-930 -733,-610 -275,-373 -1164,-1106l-18578 -10161c-928,-293 -2797,-930 -3744,-1242 -4443,-1463 -7011,-2336 -11863,-2615l-200 -886 -28136 0 -309 871c-6960,464 -7971,1049 -13681,2934l-6491 2472c-3531,1301 -6760,3532 -9700,5486l-3088 2043c-5195,3584 -3512,2231 -8208,7037 -2986,3055 -5859,5359 -8003,8807 -91,146 -365,566 -461,709l-11322 21398c-1391,4173 -3837,12408 -3972,16423 -120,3539 -398,1915 -836,4069 -657,3226 710,19716 -415,24897 -13987,707 -39630,112 -55525,40 -5021,-23 -10000,1970 -13389,5488 -4153,4310 -5539,4445 -7264,11471 -520,2121 -754,1017 -871,4121 -54,1413 30,3102 32,4551l1 45633c0,11084 2175,23751 -11471,25641l-5647 -1112c-5539,-2030 -6969,-7814 -7819,-12839 -339,-2000 -83,-6601 -83,-8874 1,-24683 0,-49366 0,-74049 -9874,-32 -39499,-535 -47595,-29 -5838,364 -12503,4156 -15974,9564l-2493 4403c-65,165 -237,675 -307,823 -643,1365 393,504 -907,1290z"/>
 </g>
</svg>
